<?xml version="1.0" encoding="utf-8"?>
<!-- Generator: Adobe Illustrator 22.1.0, SVG Export Plug-In . SVG Version: 6.00 Build 0)  -->
<svg version="1.1" id="레이어_1" xmlns="http://www.w3.org/2000/svg" xmlns:xlink="http://www.w3.org/1999/xlink" x="0px"
	 y="0px" viewBox="0 0 200 200" style="enable-background:new 0 0 200 200;" xml:space="preserve">
<style type="text/css">
	.st0{fill:#1F2936;}
	.st1{fill:#FFFFFF;}
</style>
<g>
	<path class="st0" d="M170.2,139.6c-4.5,0-134.9,0-139.4,0c-10.1,0-12.9,7-12.9,12.9S21.3,165,30.5,165c4.1,0,135.8,0,140,0
		c9.2,0,12.6-6.7,12.6-12.6S180.3,139.6,170.2,139.6z"/>
	<path class="st0" d="M170,173.4c-4.5,0-134.5,0-139,0c-14,0-13.7,10.5-11.8,16.1c1.9,5.5,8.1,10.6,19,10.6c4.1,0,120.3,0,124.4,0
		c10.9,0,17.1-5.1,19-10.6C183.7,183.9,184,173.4,170,173.4z"/>
	<g>
		<g>
			<path class="st0" d="M27.2,127.1c-2.4-1.5-1-11-1.2-14.2c-0.2-4-2.5-5.1-4.8-6.5c-0.2-0.1-0.4-0.3-0.4-0.4c0-0.1,0.2-0.3,0.4-0.4
				c2.3-1.4,4.6-2.5,4.8-6.5c0.2-3.2-1.3-12.7,1.2-14.2c2.8-1.7,4-0.7,3.9-3.4c0-2.1-1.6-3.7-5.1-2.7s-6.6,2.5-6.5,7.9
				c0.1,9.9,1.2,14.2-3.8,16.6c-1.5,0.7-2.3,1.6-2.3,2.8s0.7,2,2.3,2.8c5,2.4,3.9,6.7,3.8,16.6c-0.1,5.4,3,7,6.5,7.9
				s5.1-0.6,5.1-2.7C31.2,127.8,30.1,128.8,27.2,127.1z"/>
			<path class="st0" d="M174,127.3c2.4-1.5,1-11.1,1.1-14.3c0.2-4,2.5-5.2,4.7-6.6c0.2-0.1,0.4-0.3,0.4-0.4c0-0.1-0.2-0.3-0.4-0.4
				c-2.2-1.4-4.5-2.6-4.7-6.6c-0.2-3.2,1.2-12.8-1.1-14.3c-2.8-1.7-3.9-0.7-3.9-3.5c0-2.1,1.6-3.7,5-2.7c3.4,1,6.5,2.5,6.4,7.9
				c-0.1,10-1.1,14.3,3.8,16.7c1.5,0.7,2.2,1.6,2.2,2.8s-0.7,2-2.2,2.8c-4.9,2.4-3.9,6.7-3.8,16.7c0.1,5.4-3,7-6.4,7.9
				c-3.4,1-5-0.6-5-2.7C170.1,128,171.2,129,174,127.3z"/>
		</g>
	</g>
	<g>
		<g>
			<path class="st0" d="M55.7,99.7c0.6,0.1,1.1,0.4,1.4,0.8c0.3,0.4,0.4,0.9,0.3,1.4v0l-0.4,3c-1.5-0.5-2.7-0.9-3.8-1.1
				c-1.1-0.2-2.4-0.3-4-0.3c-1.4,0-2.6,0.2-3.7,0.5c-1.1,0.3-1.6,0.9-1.6,1.7c0,0.4,0.3,0.8,0.8,1.2c0.5,0.4,1.2,0.7,1.9,1.1
				c0.7,0.3,1.4,0.6,2.1,0.9c0.7,0.3,1.3,0.4,1.7,0.5c0.9,0.3,1.8,0.7,2.8,1.1c1,0.4,1.9,0.9,2.7,1.5c0.8,0.6,1.5,1.3,2,2.1
				c0.5,0.8,0.8,1.7,0.8,2.7c0,1.4-0.3,2.5-0.9,3.4c-0.6,0.9-1.4,1.7-2.4,2.2c-1,0.6-2.2,1-3.5,1.3c-1.3,0.3-2.7,0.4-4,0.4
				c-1.9,0-3.4-0.1-4.7-0.3c-1.2-0.2-2.3-0.4-3.2-0.5c-0.6-0.2-1.1-0.4-1.3-0.8c-0.2-0.4-0.3-0.9-0.3-1.4l0.3-3
				c1.7,0.6,3.2,1,4.5,1.3c1.3,0.2,2.6,0.4,3.8,0.4c0.6,0,1.2,0,1.9-0.1c0.7-0.1,1.3-0.2,1.9-0.4c0.6-0.2,1-0.5,1.4-0.8
				c0.4-0.3,0.6-0.8,0.6-1.3c0-0.4-0.2-0.7-0.5-1c-0.3-0.3-0.8-0.6-1.3-0.9c-0.6-0.3-1.2-0.6-1.9-0.9c-0.7-0.3-1.4-0.6-2.1-0.9
				c-0.9-0.3-1.8-0.7-2.9-1c-1-0.4-2-0.8-2.9-1.4c-0.9-0.5-1.7-1.2-2.3-1.9c-0.6-0.7-0.9-1.6-0.9-2.6c0-1.3,0.3-2.4,0.9-3.3
				c0.6-0.9,1.4-1.7,2.5-2.3c1.1-0.6,2.3-1,3.7-1.3c1.4-0.3,2.8-0.4,4.4-0.4c0.6,0,1.2,0,1.8,0.1c0.6,0,1.1,0.1,1.7,0.2
				c0.5,0.1,1,0.1,1.5,0.2C54.8,99.5,55.3,99.6,55.7,99.7z"/>
			<path class="st0" d="M75.5,119.2c0.9,0,1.6-0.1,2.1-0.2c0.5-0.1,1.1-0.3,1.6-0.6l0.2,2.9c0,0.5-0.1,0.9-0.3,1.3
				c-0.2,0.4-0.7,0.7-1.3,0.9c-0.5,0.1-1,0.2-1.5,0.3c-0.5,0-1.1,0.1-1.6,0.1c-2.6,0-4.8-0.6-6.6-1.8c-1.8-1.2-2.6-3-2.6-5.6v-12.7
				h-6.1v-4.4h6.1v-6.9h5.8v6.9h7.6c0,0.5,0,1.1,0,1.6c-0.1,0.5-0.2,1-0.4,1.5c-0.2,0.4-0.5,0.8-0.9,1.1c-0.4,0.3-0.9,0.4-1.5,0.4
				h-4.7v11.6c0,1.3,0.4,2.3,1.2,2.9C73.3,118.9,74.3,119.2,75.5,119.2z"/>
			<path class="st0" d="M93.1,103.5c-1.6,0-3.1,0.3-4.6,0.9c-1.5,0.6-2.9,1.4-4.4,2.3l-0.3-3.2c-0.1-0.5,0-0.9,0.2-1.4
				s0.6-0.8,1.3-1.1h-0.1c1.5-0.6,2.9-1.1,4.3-1.4c1.4-0.4,2.9-0.5,4.4-0.5c4.2,0,7.4,0.8,9.7,2.5c2.3,1.7,3.4,4.2,3.4,7.5v10.4
				c0,0.6,0,1,0,1.4s0.1,0.7,0.1,0.9c0,0.3,0.1,0.5,0.1,0.6c0.1,0.2,0.1,0.3,0.2,0.4c0,0,0,0.1,0,0.1c0,0.1,0,0.1,0,0.2
				c0,0.1,0,0.2,0.1,0.3c-0.5,0.1-0.9,0.1-1.3,0.1c-0.4,0-0.7,0-1,0c-0.9,0-1.8-0.1-2.5-0.4c-0.7-0.3-1.1-0.9-1.1-1.8V121
				c-1,0.8-2.3,1.4-3.9,2.1c-1.6,0.6-3.2,0.9-4.9,0.9c-3.5,0-6.2-0.7-8.3-2c-2-1.3-3.1-3.3-3.1-5.8c0-1.5,0.4-2.8,1.1-3.8
				c0.8-1,1.8-1.9,3-2.5c1.3-0.6,2.7-1.1,4.3-1.4c1.6-0.3,3.3-0.4,4.9-0.4l6.3,0.1c-0.2-1.5-1-2.7-2.4-3.6
				C97.4,103.8,95.5,103.4,93.1,103.5z M101.3,112.3c-0.6,0-1.2,0-2,0c-0.8,0-1.6,0-2.4,0c-0.9,0-1.9,0-3,0.1
				c-1.1,0.1-2.1,0.3-3.1,0.5c-1,0.3-1.9,0.6-2.5,1.2c-0.7,0.5-1,1.2-1,2.1c0,1,0.6,1.9,1.9,2.5c1.2,0.6,2.7,0.9,4.2,0.9
				c2.1,0,4-0.5,5.5-1.5c1.6-1,2.3-2.3,2.3-3.9V112.3z"/>
			<path class="st0" d="M115.9,111.5c0,2.4,0.9,4.3,2.6,5.8c1.7,1.5,4.3,2.3,7.9,2.3c0.6,0,1.2,0,1.8-0.1c0.6-0.1,1.2-0.2,1.8-0.4
				c0.6-0.2,1.1-0.3,1.6-0.5c0.5-0.2,1-0.4,1.5-0.5l0.5,2.6c0.1,0.5,0,0.9-0.1,1.3c-0.1,0.4-0.4,0.7-0.7,1c-1.3,0.5-2.5,0.9-3.6,1
				c-1.1,0.1-2.2,0.2-3.3,0.2c-2.4,0-4.6-0.3-6.5-0.9c-1.9-0.6-3.6-1.4-4.9-2.5c-1.4-1.1-2.4-2.4-3.2-3.9c-0.7-1.5-1.1-3.3-1.1-5.2
				c0-4.1,1.4-7.2,4.3-9.3c2.8-2.1,6.7-3.2,11.7-3.2c0.9,0,1.8,0.1,2.7,0.3c0.9,0.2,1.8,0.4,2.7,0.7c0.6,0.3,1.1,0.6,1.3,1
				c0.2,0.4,0.3,0.8,0.2,1.4l-0.5,3.1c-0.9-0.5-2-0.9-3.2-1.3c-1.2-0.4-2.4-0.6-3.6-0.6c-3.1,0.1-5.5,0.8-7.2,2.2
				C116.7,107,115.9,109,115.9,111.5z"/>
			<path class="st0" d="M142.7,123.6h-5.7V88.2c0.6-0.1,1.2-0.1,1.9-0.1c0.7,0,1.3,0.2,1.8,0.4c0.6,0.2,1,0.5,1.4,1
				c0.4,0.4,0.6,1,0.6,1.7V123.6z M152.3,100.5c0.4-0.4,0.9-0.7,1.5-1c0.6-0.3,1.2-0.5,1.8-0.5h6l-11.7,11.1c1.1,1,2.1,2.1,3.2,3.2
				c1.1,1.1,2.2,2.3,3.3,3.5c1.1,1.2,2.2,2.3,3.3,3.5c1.1,1.1,2.2,2.2,3.2,3.2h-7.1l-12.6-12.8c-0.1-0.1-0.1-0.2-0.1-0.3
				c0-0.1,0-0.2,0-0.4c0-0.1,0-0.2,0-0.3c0-0.1,0.1-0.2,0.1-0.3L152.3,100.5z"/>
		</g>
	</g>
	<path class="st0" d="M100.6,0.9C100.5,0.9,100.5,0.9,100.6,0.9C100.5,0.9,100.5,0.9,100.6,0.9C100.5,0.9,100.5,0.9,100.6,0.9
		c-0.1,0-0.1,0-0.1,0C43.6,0.9,17,50.3,18,59.6c0.6,4.8,1.7,9.8,9.2,11.1c0,0,0.1,0,0.1,0c0.1,0,0.2,0,0.3,0
		c0.9,0.2,1.9,0.3,3.1,0.3c0.1,0,0.3,0,0.5,0c4.4,0,128.6,0,138.5,0c0.2,0,0.4,0,0.5,0c1,0,1.9-0.1,2.7-0.2c8.2-1.1,9.4-6.3,10-11.2
		C184,50.3,157.4,0.9,100.6,0.9z"/>
	<g>
		<path class="st1" d="M61.2,47c0.1-0.3,0.4-0.6,0.5-1c0.2-0.3-0.5,0.5-0.1,0.1c0.1-0.1,0.3-0.3,0.4-0.4c1.2-1.2,1.3-3.4,0-4.5
			c-1.3-1.2-3.2-1.2-4.5,0c-0.8,0.7-1.4,1.6-1.9,2.6c-0.4,0.8-0.6,1.6-0.3,2.5c0.2,0.7,0.8,1.5,1.5,1.9C58.3,48.9,60.5,48.6,61.2,47
			L61.2,47z"/>
	</g>
	<g>
		<path class="st1" d="M79.6,27.4c-0.1,1.2-0.6,1.9-1.7,2.3c0.8-0.3,1.4-0.7,1.9-1.5c0.4-0.7,0.6-1.7,0.3-2.5
			c-0.2-0.8-0.7-1.5-1.5-1.9c-0.7-0.4-1.7-0.6-2.5-0.3c-0.7,0.3-1.4,0.6-2,1.2c-0.7,0.7-1.1,1.7-1,2.6c0.1,1.7,1.4,3.3,3.2,3.2
			C78.1,30.5,79.6,29.2,79.6,27.4L79.6,27.4z"/>
	</g>
	<g>
		<path class="st1" d="M104.7,24.5c0-0.1,0-0.3,0-0.4c0-1.7-1.5-3.3-3.2-3.2c-1.7,0.1-3.2,1.4-3.2,3.2c0,0.1,0,0.3,0,0.4
			c0,1.7,1.5,3.3,3.2,3.2C103.3,27.6,104.7,26.3,104.7,24.5L104.7,24.5z"/>
	</g>
	<g>
		<path class="st1" d="M111.5,47.2c4.1,0,4.1-6.4,0-6.4C107.4,40.8,107.4,47.2,111.5,47.2L111.5,47.2z"/>
	</g>
	<g>
		<path class="st1" d="M129,25c-0.2-0.2-0.4-0.4-0.6-0.5c-1.2-1.1-3.3-1.3-4.5,0c-1.1,1.2-1.3,3.3,0,4.5c0.2,0.2,0.4,0.4,0.6,0.5
			c1.2,1.1,3.3,1.3,4.5,0C130.2,28.3,130.3,26.3,129,25L129,25z"/>
	</g>
	<g>
		<path class="st1" d="M148.2,42.9c-0.5-0.5-1-1-1.4-1.6c-1.1-1.2-3.4-1.2-4.5,0c-1.2,1.3-1.2,3.2,0,4.5c0.5,0.5,1,1,1.4,1.6
			c1.1,1.2,3.4,1.2,4.5,0C149.4,46.1,149.4,44.2,148.2,42.9L148.2,42.9z"/>
	</g>
	<g>
		<path class="st1" d="M90.3,46.1c4.1,0,4.1-6.4,0-6.4C86.2,39.8,86.2,46.1,90.3,46.1L90.3,46.1z"/>
	</g>
</g>
</svg>
