<?xml version="1.0" encoding="utf-8"?>
<!-- Generator: Adobe Illustrator 22.1.0, SVG Export Plug-In . SVG Version: 6.00 Build 0)  -->
<svg version="1.1" id="레이어_1" xmlns="http://www.w3.org/2000/svg" xmlns:xlink="http://www.w3.org/1999/xlink" x="0px"
	 y="0px" viewBox="0 0 500 300" style="enable-background:new 0 0 500 300;" xml:space="preserve">
<style type="text/css">
	.st0{fill:#4D1B00;}
	.st1{fill:#175F0D;}
	.st2{fill:#FA7702;}
	.st3{fill:#AB612E;}
</style>
<g>
	<path class="st0" d="M15.7,206.4c-0.3-0.5-0.6-1-0.9-1.5c-1.6-2.4-2.4-5-2.6-7.8c-0.2-2.3-0.2-4.7-0.1-7c0.2-6.6,3.6-11,9.6-13.5
		c2.3-1,4.7-1.5,7.1-1.8C34.5,174,40.3,174,46,174c20.9,0,41.8,0,62.8,0c17.4,0,34.7,0,52.1,0.1c3.6,0,7.2,0.3,10.8,0.8
		c2.9,0.4,5.7,1.4,8.2,3c3.8,2.4,6.1,5.9,6.6,10.5c0.4,3.3,0.3,6.6-0.1,9.9c-0.3,2.1-1,4.2-2.1,6c-0.4,0.7-0.9,1.4-1.4,2.2
		c0.2,0.3,0.3,0.7,0.5,1c1.4,2.3,2.1,4.9,2.3,7.6c0.3,4.9-0.2,9.7-1.6,14.4c-2.3,7.6-7.1,13.1-14.3,16.5c-2.9,1.4-6,2.4-9.1,3.2
		c-7.2,1.9-14.5,2.9-21.8,3.8c-8.4,1-16.8,1.5-25.2,1.9c-7.9,0.3-15.8,0.4-23.7,0.2c-6.3-0.2-12.7-0.5-19-0.9
		c-9.4-0.7-18.7-1.6-27.9-3.6c-4.2-0.9-8.4-2-12.5-3.7c-3.7-1.5-7.1-3.5-9.9-6.4c-2.6-2.7-4.5-5.8-5.8-9.3
		c-1.8-4.8-2.4-9.8-2.2-14.9c0.1-3.2,0.8-6.2,2.6-8.8C15.4,207,15.5,206.7,15.7,206.4z M179,209.7c-0.4,0.2-0.8,0.4-1.2,0.6
		c-2.1,1.1-4.3,2-6.7,2.7c-5.3,1.5-10.7,2.5-16.2,3.3c-7.6,1.2-15.3,2-23,2.5c-10.5,0.8-21,1.2-31.5,1.3c-10.4,0-20.7-0.3-31.1-1
		c-4.8-0.4-9.7-0.7-14.5-1.2c-4.1-0.4-8.2-0.9-12.3-1.6c-4.2-0.7-8.3-1.5-12.4-2.4c-3.5-0.8-6.9-1.9-10-3.7c-0.3-0.2-0.7-0.3-1-0.4
		c-1,0.7-1.4,1.7-1.6,2.7c-0.2,0.9-0.4,1.8-0.5,2.7c-0.2,4.2,0.1,8.3,1.2,12.3c1.9,6.6,5.9,11.4,12.1,14.4c3.5,1.7,7.2,2.9,11,3.7
		c7.9,1.8,15.9,2.8,24,3.5c10.7,1,21.3,1.5,32,1.4c6,0,11.9-0.1,17.9-0.4c5-0.2,10.1-0.5,15.1-1c5.9-0.6,11.7-1.4,17.6-2.1
		c3.9-0.5,7.7-1.2,11.4-2.3c3.6-1,7.1-2.1,10.3-4c4.2-2.5,7.2-6,9.1-10.5c1.9-4.6,2.6-9.5,2.3-14.5c-0.1-1.5-0.4-3-0.9-4.3
		C180.1,210.7,179.8,210,179,209.7z"/>
	<path class="st1" d="M419.3,193.6c0.5,0.2,0.9,0.3,1.3,0.4c0.8,0,1.7,0,2.5,0c11.2,0,22.4,0,33.6,0c0.5,0,1,0,1.5,0.2
		c2.5,0.6,3.8,2.6,3.2,5.1c-0.6,2.7-2.9,4.6-5.7,4.7c-0.8,0-1.6,0-2.3,0c-11.3,0-22.7,0-34,0c-3.3,0-3,0-3.9,2.8
		c-0.4,1.3-0.8,2.6-1.2,3.9c-0.5,1.8-1.6,3.1-3.4,3.8c-3.7,1.4-7.6,1.7-11.5,1.1c-0.5-0.1-1-0.2-1.5-0.5c-0.9-0.6-1.3-1.6-1.1-2.7
		c0.2-0.9,0.5-1.9,0.8-2.8c0.4-1.2,0.8-2.5,1.2-3.7c0.1-0.3,0.4-0.7-0.1-1.2c-0.6,0.3-1.1,0.9-1.6,1.3c-3.2,2.9-6.6,5.5-10.5,7.3
		c-5.7,2.6-11.7,3.7-18,2.1c-4.7-1.2-8.4-3.7-10.8-7.9c-0.1-0.2-0.3-0.4-0.5-0.8c-0.3,0.2-0.7,0.4-0.9,0.6c-0.6,0.6-1.1,1.2-1.7,1.8
		c-3,2.9-6.6,5.1-10.7,5.9c-2.8,0.5-5.5,0.5-8.2-0.7c-1.9-0.8-3.4-2.1-4.2-4.1c-0.3-0.6-0.5-1.2-0.9-1.9c-0.5,0.5-1,0.8-1.3,1.2
		c-1.4,1.5-3.1,2.8-4.8,3.9c-3.7,2.3-7.8,3.2-12.1,2.5c-1.7-0.2-3.3-0.8-4.8-1.6c-2.2-1.2-3.7-3-4.6-5.3c-0.2-0.6-0.5-1.2-0.8-1.9
		c-0.4,0.2-0.6,0.4-0.8,0.6c-0.9,0.9-1.7,1.8-2.6,2.6c-5.1,4.7-11,7.1-18,7c-2.4,0-4.7-0.6-6.9-1.8c-2.7-1.5-4.3-3.9-4.9-6.9
		c-0.7-3-0.5-6.1,0.3-9c1.1-4.1,2.4-8.2,3.6-12.3c1.1-3.5,2.1-7.1,3.2-10.6c0.1-0.4,0.2-0.9,0.3-1.4c-0.4-0.1-0.8-0.2-1.2-0.2
		c-1.2,0-2.5,0-3.7,0c-2.1-0.1-3.1-1.3-2.8-3.3c0.3-1.8,0.9-3.4,2.2-4.7c0.9-1,2-1.6,3.4-1.6c1.2,0,2.5,0,3.7,0c1,0,1.7-0.4,2.1-1.4
		c0.6-1.5,1.1-3,1.8-4.5c0.5-1.1,1-2.1,1.6-3.1c2.5-4.1,6.2-6.1,10.8-6.9c1.4-0.2,2.8-0.4,4.3-0.1c2.2,0.4,3.1,1.8,2.4,3.9
		c-0.9,3-1.8,5.9-2.7,8.9c-0.3,0.9-0.7,1.8-0.7,2.7c0.5,0.6,1,0.4,1.5,0.4c1.7,0,3.5,0,5.2,0c0.6,0,1.3,0,1.9,0.1
		c1.2,0.2,1.8,0.9,2,2c0.1,0.4,0.1,0.8,0,1.2c-0.3,1.3-0.7,2.6-1.4,3.8c-1,1.6-2.5,2.5-4.3,2.5c-1.6,0-3.1,0-4.7,0
		c-1.2,0-2.3-0.1-3.5,0.2c-0.5,0.7-0.7,1.6-1,2.4c-1.7,5.4-3.3,10.8-4.9,16.2c-0.5,1.5-0.8,3.1-1.2,4.7c-0.2,0.7-0.3,1.4-0.2,2.1
		c0,2.4,1.5,3.9,4,3.7c0.9-0.1,1.8-0.3,2.6-0.6c1.6-0.5,3-1.3,4.1-2.5c1-1,2-2,3-3.1c1-1.1,1.5-2.3,1.9-3.8
		c1.5-6.6,4.3-12.6,8.6-17.9c3.3-4.1,7.3-7.3,12.4-9c2.6-0.9,5.3-1.2,8-0.9c2.4,0.3,4.7,1.1,6.5,2.8c0.2,0.2,0.4,0.3,0.6,0.5
		c0.4-0.3,0.9-0.6,1.2-1c1.3-1.1,2.8-1.7,4.4-2c2.2-0.4,4.4-0.5,6.6,0c0.5,0.1,1,0.3,1.5,0.5c1.7,0.8,2.4,2.1,2.1,3.9
		c-0.1,0.5-0.2,1-0.4,1.5c-2.1,7.2-4.1,14.3-6.2,21.5c-0.4,1.3-0.7,2.6-1,4c-0.2,0.9-0.2,1.9-0.1,2.9c0.2,1.7,1.6,2.8,3.3,2.4
		c0.9-0.2,1.7-0.6,2.5-1.1c0.9-0.6,1.7-1.4,2.5-2.1c0.8-0.7,1.1-1.5,1-2.6c-0.1-3.4,0.5-6.7,1.6-9.9c2.1-6.3,5.7-11.6,10.9-15.7
		c5-3.9,10.7-6,17.1-5.9c3.1,0.1,6,0.7,8.7,2.3c6.4,3.6,5.6,11.7,1.2,15.3c-1.9,1.6-4.1,2.5-6.6,2.2c-0.5-0.1-1-0.1-1.5-0.3
		c-2.3-0.9-2.9-2.9-2.3-5.3c0.1-0.4,0.4-0.8,0.5-1.3c0.1-0.5,0.2-1,0.2-1.5c-0.1-0.8-0.5-1.3-1.3-1.4c-1.1-0.2-2,0.1-2.9,0.7
		c-1.5,1.1-2.7,2.4-3.7,4c-2.2,3.6-3.9,7.5-4.5,11.7c-0.3,1.6-0.3,3.2,0,4.8c0.7,4,3.4,6.4,7.4,6.6c2.8,0.2,5.4-0.5,7.9-1.6
		c3.5-1.4,6.4-3.6,9.2-6.1c1.6-1.4,3.1-3,4.4-4.7c0.7-0.9,1.1-1.8,1.4-2.9c1.4-5.1,2.9-10.2,4.3-15.3c2.2-7.8,4.4-15.6,6.6-23.4
		c0.7-2.6,2.3-4.5,4.8-5.5c3.2-1.3,6.5-1.6,9.9-1.3c0.6,0,1.1,0.2,1.7,0.4c1.5,0.5,2.1,1.6,2,3.2c0,0.4-0.2,0.9-0.3,1.3
		c-1.9,6.1-3.7,12.1-5.6,18.2c-1,3.2-2,6.4-3,9.6c-0.1,0.3-0.2,0.6-0.3,0.9c-0.2,0.8,0.1,1.2,1,1.3c0.5,0,0.9,0,1.4,0
		c11.7,0,23.5,0,35.2,0c0.9,0,1.8,0,2.7,0c2.6,0.2,4,2.3,3.4,4.8c-0.7,2.5-2.3,4.2-4.9,4.8c-1.1,0.3-2.3,0.3-3.5,0.3
		c-11.9,0-23.8,0-35.8,0c-0.6,0-1.3,0-1.9,0c-0.4,0-0.8,0.2-0.9,0.6C419.9,190.4,419.5,191.9,419.3,193.6z M318.8,198.8
		c0.1,0.5,0.1,1.4,0.4,2.3c0.6,2,2.1,2.9,4.2,2.6c1-0.2,1.9-0.6,2.7-1.1c1-0.7,1.9-1.6,2.7-2.5c1-1.3,1.8-2.8,2.3-4.5
		c1.2-3.7,2.3-7.4,3.4-11.1c0.3-1.1,0.7-2.2,0.9-3.4c0.4-2-0.7-3.4-2.8-3.6c-1.4-0.1-2.7,0.2-3.9,1c-1.5,1-2.8,2.3-3.9,3.8
		c-1.9,2.6-3.4,5.5-4.5,8.6C319.5,193.2,318.9,195.8,318.8,198.8z"/>
	<path class="st2" d="M261.5,96.8c0.7,0.3,1.2,0.5,1.8,0.7c4.8,1.6,7.7,5,9.2,9.8c0.8,2.6,0.7,5.3,0.3,7.9
		c-0.8,4.8-3.1,8.8-6.5,12.1c-1.4,1.4-3.1,2.6-4.8,3.6c-3.3,2-6.9,3.3-10.6,4.1c-4.7,1-9.5,1.4-14.3,1.4c-0.5,0-0.9,0-1.4,0
		c-6.1,0.1-12.2-0.3-18.2-1.3c-2.2-0.4-4.5-0.8-6.7-1.3c-1-0.2-1.8-0.7-2.4-1.5c-1.3-1.9-0.2-6.1,2.7-6.5c1-0.1,1.9-0.3,2.9-0.3
		c2.6-0.2,3.6-1,4.2-3.5c0.6-2.3,1.1-4.7,1.6-7c1.3-5.5,2.7-11.1,4-16.6c0.7-2.8,1.3-5.6,1.9-8.3c0.8-3.4,1.6-6.8,2.3-10.2
		c0.2-0.7,0.3-1.5,0.2-2.3c-0.1-1.6-1.3-2.3-2.8-1.6c-3.7,1.9-6.3,4.8-6.9,9c-0.2,1.2,0,2.5,0.3,3.7c0.1,0.5,0.3,1,0.5,1.5
		c0.5,1.4,0.1,2.7-1,3.7c-0.7,0.7-1.5,1.2-2.5,1.5c-2.3,0.6-4.6,0.7-6.9-0.1c-3.8-1.3-5.6-4.3-6-8.1c-0.3-2.9,0.3-5.6,1.5-8.3
		c1.7-3.5,4-6.4,6.9-8.8c2.4-1.9,5-3.5,7.7-4.8c5.5-2.6,11.3-4.2,17.3-5.1c4.9-0.8,9.9-1,14.9-0.8c3.7,0.2,7.3,0.6,10.9,1.7
		c2.8,0.9,5.4,2.2,7.7,4c3.3,2.6,5.2,6.1,5.5,10.3c0.5,5.5-0.9,10.4-4.5,14.6c-1.7,2.1-3.9,3.5-6.3,4.8c-0.7,0.4-1.5,0.7-2.3,1.1
		C262,96.2,261.8,96.5,261.5,96.8z M244,102.3c-0.5,0-0.9,0-1.4,0c-2.4,0-2.5,0.1-3.1,2.5c-1.1,4.5-2.2,8.9-3.3,13.4
		c-0.4,1.6-0.8,3.3-1.1,4.9c-0.3,1.4,0.3,2.3,1.7,2.6c0.5,0.1,1,0.1,1.5,0.1c2.3,0,4.5-0.5,6.7-1.1c2.7-0.7,4.9-2.2,6.8-4.3
		c2.4-2.6,4.3-8.1,2.9-11.9c-0.9-2.6-2.6-4.4-5.2-5.4C247.7,102.4,245.9,102.2,244,102.3z M249.6,71.6c-0.2,0-0.4,0-0.6,0
		c-1.8,0-2.2,0.4-2.7,2.2c0,0.2-0.1,0.4-0.1,0.6c-0.9,4-1.8,8.1-2.7,12.1c-0.4,1.7-0.7,3.4-1,5.1c-0.2,1,0.1,1.4,1.2,1.5
		c0.3,0,0.5,0,0.8,0c1.5-0.1,3-0.2,4.4-0.8c4.5-1.7,7.5-4.7,8.7-9.4c0.5-2,0.7-4.1,0.1-6.1c-0.5-1.9-1.6-3.4-3.4-4.2
		C252.7,72,251.2,71.6,249.6,71.6z"/>
	<path class="st1" d="M225.6,225.3c-4.3,0-8.5-0.4-12.7-1.7c-3.4-1-6.5-2.5-9.2-4.9c-3.9-3.5-5.9-7.9-5.4-13.2
		c0.8-8.6,7-13.4,13.6-14.3c1.6-0.2,3.1-0.1,4.6,0.5c2,0.9,2.7,2.9,1.6,4.8c-0.3,0.6-0.7,1.1-1.1,1.6c-0.7,1-1.2,2.1-1.5,3.3
		c-0.9,3.5,0.1,6.6,3.5,8.9c1.9,1.3,4,2.1,6.3,2.4c4,0.5,7.9,0.1,11.6-1.4c3-1.3,5.3-3.4,6.7-6.4c1.5-3.2,1.1-6.2-0.9-9
		c-0.8-1.1-1.8-2-2.9-2.9c-2.5-1.9-5.2-3.4-8-4.8c-2.9-1.5-5.9-3-8.7-4.8c-2.7-1.8-5.3-3.7-7.3-6.3c-2.2-2.9-3.5-6.1-3.7-9.7
		c-0.1-1.3,0.1-2.6,0.3-3.9c0.9-5.1,3.5-9.3,7.2-12.8c2.8-2.6,6-4.5,9.5-5.9c7.5-2.9,15.3-3.8,23.3-2.5c3.3,0.5,6.6,1.5,9.4,3.4
		c3.1,2.1,5.2,4.8,5.6,8.7c0.4,4.5-1.2,8.1-4.8,10.8c-1.6,1.2-3.3,2-5.3,2.4c-1.4,0.3-2.7,0.3-4-0.1c-0.7-0.2-1.5-0.6-2.1-1
		c-1.3-1-1.7-2.4-1.2-4c0.2-0.7,0.6-1.4,0.9-2.2c0.9-2.6,0-5-2.5-6.2c-3.2-1.5-6.5-1.5-9.8-0.4c-2.2,0.8-4.2,1.9-5.7,3.9
		c-1.9,2.6-2,6.1-0.1,8.7c1,1.4,2.2,2.5,3.6,3.5c1.5,1,3.1,1.9,4.7,2.8c2.8,1.6,5.7,3,8.6,4.6c2.7,1.4,5.2,3.1,7.5,5.2
		c4.9,4.3,7.1,9.7,6.7,16.2c-0.3,4.3-1.9,8.1-4.2,11.5c-2.8,4.1-6.5,7.2-10.9,9.5c-6.6,3.5-13.7,5.1-21.1,5.5
		C227.2,225.4,226.4,225.3,225.6,225.3z"/>
	<path class="st2" d="M368.9,117.9c-0.2-0.3-0.3-0.6-0.6-0.8c-3.5-3.3-4.8-7.4-4-12.2c1.3-8.1,6-13.5,13.3-16.7
		c5.4-2.4,10.9-2.6,16.5-0.7c0.6,0.2,1.2,0.4,1.8,0.7c1,0.5,2,0.3,2.9-0.2c1.1-0.6,2.1-1.3,3.2-1.8c1.8-0.9,3.6-1.4,5.6-1.4
		c1.1,0,2.2,0.3,3.1,0.9c1.6,1,2.3,2.7,1.8,4.5c0,0.1-0.1,0.3-0.1,0.4c-0.9,2.9-2.1,3.9-5.1,4.2c-0.8,0.1-1.7,0.2-2.5,0.5
		c-1,0.4-1.3,1.1-0.9,2c1.4,4.1,1,8-0.6,11.9c-1.4,3.3-3.8,5.7-6.6,7.7c-2.8,2.1-6.1,3.1-9.5,3.8c-3.3,0.7-6.6,0.6-9.9,0.2
		c-0.6-0.1-1.2-0.1-1.7-0.2c-0.7-0.1-1.3,0.2-1.7,0.7c-1.1,1.1-0.9,2.5,0.4,3.3c0.8,0.5,1.8,0.7,2.8,0.8c1.9,0.2,3.7,0.3,5.6,0.5
		c3.6,0.4,7.2,0.3,10.8,1.1c2.3,0.5,4.4,1.4,6.4,2.7c2.8,1.7,4,4.3,4.3,7.4c0.3,3.6-0.8,6.8-2.6,9.8c-1.2,1.9-2.8,3.5-4.7,4.9
		c-4,3-8.4,4.9-13.2,5.9c-4.4,0.9-8.8,1.3-13.3,0.8c-2.1-0.3-4.3-0.4-6.3-0.9c-2.6-0.7-5.2-1.6-7.4-3.3c-0.8-0.6-1.5-1.3-2.1-2
		c-1.1-1.2-1.8-2.7-1.9-4.4c0-1.3-0.1-2.6,0.2-3.9c0.5-2.4,1.8-4.4,3.9-5.8c1.8-1.2,3.8-2,6-2.2c1.8-0.2,3.5,0.3,5.1,1.1
		c0.3,0.1,0.5,0.3,0.8,0.6c0.5,0.4,0.5,0.9,0.1,1.4c-0.3,0.3-0.6,0.5-0.9,0.8c-1.8,1.5-2.1,5.2,0.4,7c1.3,0.9,2.7,1.6,4.3,1.8
		c2,0.3,4.1,0.6,6.2,0.5c2.4-0.1,4.7-0.6,6.9-1.8c1-0.6,1.9-1.3,2.6-2.3c1.1-1.8,0.8-3.4-0.8-4.6c-1-0.8-2.2-1.3-3.5-1.6
		c-1.6-0.3-3.2-0.5-4.8-0.8c-3.3-0.4-6.6-0.8-9.7-1.7c-1.5-0.5-3.1-1.1-4.5-1.8c-4.8-2.4-5.6-7-3.8-10.8c0.6-1.3,1.5-2.4,2.7-3.2
		c1.2-0.8,2.5-1.4,3.7-2.1C368,118.2,368.4,118.1,368.9,117.9z M379,107.4c0,0.5,0,1.3,0.1,2c0,0.4,0.2,0.8,0.3,1.1
		c0.6,1.5,2.7,3.2,4.9,2c0.7-0.4,1.4-0.9,2-1.5c0.6-0.6,1.1-1.3,1.5-2c1.8-3.1,2.3-6.6,2.1-10.1c0-0.5-0.2-1-0.4-1.5
		c-0.9-2.4-3.2-3.2-5.4-1.9c-1.1,0.6-1.9,1.5-2.6,2.6C379.9,100.9,379.1,103.9,379,107.4z"/>
	<path class="st1" d="M452.7,239.7c-0.4-0.1-1-0.2-1.6-0.3c-4.9-1-9.8-2.1-14.7-2.9c-4.6-0.8-9.2-1.6-13.8-2.2
		c-6.2-0.8-12.5-1.5-18.7-2.1c-6.3-0.6-12.7-1-19-1.3c-10.5-0.6-21-0.9-31.5-0.7c-8.5,0.2-17.1,0.4-25.6,0.9
		c-7.4,0.4-14.7,0.9-22.1,1.6c-8.6,0.8-17.3,1.8-25.9,3c-8.5,1.2-16.9,2.6-25.3,4.2c-6.7,1.3-13.3,2.7-20,4.3
		c-8,1.8-16.1,3.6-24,5.8c-0.8,0.2-1.6,0.4-2.5,0.5c-0.9,0.2-1.8,0.1-2.7-0.3c-1.4-0.6-1.9-2-1.4-3.4c0.3-1,1-1.6,1.9-2.1
		c0.9-0.5,1.7-0.8,2.6-1.2c5-2.1,10.1-3.6,15.3-5.1c7-2,14-3.7,21.1-5.2c9.2-2,18.4-3.6,27.7-4.9c6.2-0.9,12.3-1.7,18.5-2.4
		c8.5-1,17-1.6,25.6-2.1c7.5-0.4,15-0.8,22.5-1c11.1-0.3,22.2-0.2,33.2,0.2c8.7,0.3,17.3,0.7,26,1.4c7.5,0.6,15,1.4,22.4,2.3
		c4.8,0.6,9.6,1.3,14.4,2.2c5.8,1.1,11.5,2.4,17.3,3.6c0.7,0.1,1.4,0.4,2,0.7c1.5,0.7,2.2,2.1,1.9,3.7c-0.2,1.4-1.3,2.5-2.9,2.8
		C453.5,239.6,453.2,239.6,452.7,239.7z"/>
	<path class="st0" d="M92.1,102.6c-7.6-0.2-15.3-0.4-22.9-0.5c-6-0.1-11.9-0.4-17.9-0.8c-4.1-0.3-8.3-0.5-12.4-0.8
		c-3.6-0.3-7.2-0.7-10.8-1.2c-2.8-0.4-5.5-1-8.1-1.9c-2.7-0.9-5-2.4-6.9-4.6c-1.5-1.8-2.5-3.8-2.9-6.1c-0.6-3.2-0.4-6.3,0.4-9.4
		c2.3-9.9,7.1-18.6,13.7-26.3c5.9-6.8,12.7-12.5,20.4-17.2c5.4-3.3,11.2-5.9,17.2-8.1c7.4-2.8,15-4.6,22.8-5.6
		c6.9-0.9,13.9-1.4,20.9-1c6.9,0.4,13.7,1.2,20.4,2.9c11.4,2.8,21.9,7.5,31.4,14.4c7.2,5.2,13.4,11.4,18.4,18.8
		c3,4.5,5.5,9.2,7.3,14.3c1.4,3.9,2.3,7.8,2.6,11.9c0.2,3.1-0.2,6.1-1.6,8.9c-1.8,3.4-4.8,5.6-8.3,7c-2.7,1.1-5.6,1.6-8.5,2.1
		c-5.4,0.8-10.8,1.3-16.2,1.7c-4.8,0.3-9.7,0.6-14.5,0.8c-3,0.1-6,0.2-8.9,0.3C115.8,102.4,103.9,102.7,92.1,102.6z M98.4,98
		c0,0.1,0,0.1,0,0.2c6.7-0.1,13.3-0.2,20-0.4c9-0.2,18-0.5,27-0.9c3.8-0.2,7.6-0.5,11.4-0.9c3.6-0.4,7.2-0.9,10.8-1.4
		c1.6-0.2,3.2-0.7,4.7-1.1c1.7-0.5,3.3-1.2,4.8-2.2c2.4-1.7,4-3.9,4.2-6.9c0.2-2.5,0-4.9-0.5-7.3c-1.4-6.3-4-12-7.3-17.5
		c-4.5-7.2-10.2-13.4-17-18.4c-5.5-4.1-11.3-7.5-17.6-10.1c-11.4-4.8-23.2-7.2-35.5-7.6c-5.8-0.2-11.5,0.3-17.2,1
		c-4.8,0.6-9.5,1.6-14.1,2.8c-3.7,1-7.3,2.2-10.9,3.6c-5.5,2.2-10.7,4.8-15.7,8c-5.1,3.2-9.7,6.9-14,11.1C26.2,55,22,60.7,18.8,67.2
		c-2.1,4.4-3.6,9-4.3,13.9c-0.2,1.9-0.1,3.7,0.4,5.6c0.8,2.8,2.7,4.7,5.3,5.9c2.3,1.1,4.7,1.8,7.2,2.1c4.1,0.6,8.2,1.1,12.3,1.5
		c3.9,0.4,7.9,0.7,11.8,0.9c3.6,0.2,7.1,0.3,10.7,0.5c6.1,0.2,12.3,0.5,18.4,0.6C86.6,98.1,92.5,98,98.4,98z"/>
	<path class="st2" d="M301.1,129.6c-0.2,0.1-0.5,0.2-0.8,0.4c-0.9,0.7-1.7,1.4-2.5,2.1c-4,3.1-8.5,4.3-13.5,3.6
		c-5.4-0.8-8.4-4.4-8.8-9.8c-0.2-2,0.1-4,0.6-6c1.1-4.9,2.3-9.8,3.5-14.7c0.4-1.7,0.7-3.4,1.1-5.1c0.3-1.7-0.1-3.2-1.1-4.5
		c-1.7-2.2-0.9-5,1.7-6c1.4-0.5,3-0.8,4.5-1.2c3.1-0.7,6.2-1.1,9.4-1.1c0.6,0,1.2,0,1.7,0.1c1.7,0.3,2.5,1.2,2.3,3
		c-0.1,0.7-0.2,1.4-0.4,2.1c-0.5,2.2-1.1,4.4-1.7,6.6c-1.4,5.3-2.8,10.5-4.1,15.8c-0.4,1.5-0.6,3-0.9,4.6c-0.1,0.4-0.1,0.8-0.1,1.2
		c0.1,2.4,1.9,3.8,4.2,3.2c0.9-0.3,1.8-0.7,2.6-1.2c1.7-1.2,2.9-2.8,3.4-4.8c1.5-6.2,3.1-12.4,4.5-18.7c0.4-1.6,0.4-3.2-0.6-4.7
		c-0.3-0.5-0.4-1.1-0.5-1.6c-0.2-2.2,0.5-3.2,2.7-3.8c4.7-1.3,9.4-1.7,14.2-1.6c0.3,0,0.6,0,1,0.1c1.4,0.3,2,1,2,2.5
		c0,0.6-0.1,1.3-0.3,1.9c-1,3.9-2.1,7.7-3.1,11.6c-1.2,4.5-2.3,9-3.5,13.5c-0.4,1.4-0.7,2.8-1,4.2c-0.1,0.7-0.3,1.4-0.2,2.1
		c0.1,1.2,0.7,1.8,1.9,1.8c0.4,0,0.8-0.1,1.2,0c0.7,0,1.3,0.4,1.4,1.1c0.3,2.1,0.2,4-1.6,5.4c-3.8,2.9-8.1,4.4-12.9,4.1
		c-2.4-0.2-4.8-1-5.6-4.7c-0.1-0.4-0.2-0.7-0.4-1.1C301.4,129.8,301.3,129.8,301.1,129.6z"/>
	<path class="st2" d="M424.6,117.1c-0.2,1.7,0.3,3,1.1,4.2c0.8,1.3,1.9,2.1,3.3,2.6c1.8,0.6,3.6,0.5,5.4,0.3c2.1-0.3,4.2-0.9,6-2
		c0.7-0.4,1.3-0.8,2-1.1c0.6-0.3,1.2-0.5,1.8-0.6c1.5-0.2,2.3,0.5,2.5,2c0.1,1.5-0.2,2.8-0.9,4.1c-0.8,1.4-1.9,2.6-3.2,3.7
		c-3.3,2.8-7.2,4.4-11.5,5.3c-4.9,0.9-9.6,0.3-14-1.9c-3.4-1.7-5.9-4.4-7.4-7.9c-1.5-3.7-1.9-7.5-1.4-11.4
		c0.6-5.2,2.1-10.1,4.9-14.6c3.7-5.9,8.8-10.1,15.5-12.3c3.9-1.2,7.9-1.5,11.9-0.7c5.2,1,8.9,4.8,9.9,10c0.2,1,0.2,2.1,0.1,3.1
		c-0.2,1.9-0.7,3.7-1.5,5.4c-1.6,3.5-4.3,5.8-7.5,7.6c-3.6,2-7.5,3.3-11.6,3.7c-1.3,0.1-2.6,0.3-3.9,0.5
		C425.6,116.9,425.2,117,424.6,117.1z M425.4,108.6c0.1,0.1,0.2,0.2,0.2,0.2c0.3,0,0.5,0.1,0.8,0c4.3-0.5,7.6-2.7,9.9-6.3
		c0.8-1.3,1.3-2.8,1.2-4.4c-0.1-2.5-2-3.7-4.3-3c-0.3,0.1-0.6,0.2-0.9,0.4c-1.3,0.7-2.4,1.7-3.2,3c-1.7,2.6-2.8,5.4-3.6,8.3
		C425.3,107.4,425.1,108.1,425.4,108.6z"/>
	<path class="st2" d="M473.9,93.3c0.3-0.1,0.5-0.2,0.7-0.3c0.7-0.8,1.4-1.7,2.1-2.5c1.6-1.8,3.4-3.2,5.7-3.9
		c1.2-0.4,2.4-0.5,3.6-0.3c1.8,0.3,3.1,1.2,3.8,2.9c0.5,1.1,0.6,2.3,0.5,3.4c-0.3,2.8-1.2,5.3-2.9,7.5c-0.7,0.9-1.5,1.6-2.6,2
		c-1.3,0.5-2.5,0.4-3.7-0.3c-0.1-0.1-0.2-0.2-0.3-0.2c-2.1-1.4-3.7-1.3-5.6,0.3c-1.4,1.2-2.2,2.7-2.8,4.4c-0.3,0.9-0.5,1.7-0.7,2.6
		c-1.1,4.7-2.3,9.3-3.4,14c-0.3,1.4-0.3,2.8-0.2,4.2c0,0.6,0.3,1.1,0.5,1.7c0.1,0.3,0.3,0.6,0.4,0.9c1.1,2,0.2,3.9-2,4.5
		c-0.4,0.1-0.7,0.2-1.1,0.3c-0.6,0.1-1.3,0.2-1.9,0.3c-3.8,0.1-7.5,0.1-11.3,0.1c-0.9,0-1.8-0.2-2.6-0.5c-1.4-0.5-1.8-1.6-1.3-3
		c0.2-0.4,0.4-0.8,0.6-1.2c1.3-1.8,2.1-3.9,2.6-6c1.8-7.2,3.5-14.5,5.3-21.7c0.2-0.9,0.4-1.8,0.5-2.7c0.2-1.5-0.2-2.8-1.4-3.8
		c-2-1.8-1.5-4.6,0.9-5.7c1.6-0.8,3.4-1.3,5.1-1.8c2.4-0.7,4.9-1.2,7.4-1.5c0.6-0.1,1.3-0.1,1.9,0c1.9,0.2,2.7,1.3,2.5,3.2
		c-0.1,0.9-0.3,1.8-0.4,2.7C473.7,92.8,473.8,93,473.9,93.3z"/>
	<path class="st2" d="M349.7,93.5c0.4-0.3,0.8-0.3,0.9-0.6c0.7-0.8,1.3-1.6,1.9-2.4c1.1-1.4,2.4-2.5,4-3.3c1.5-0.7,3-1.1,4.7-1
		c2.3,0.2,3.7,1.4,4.1,3.7c0.1,0.8,0.2,1.7,0.1,2.5c-0.4,3.2-1.3,6.2-3.6,8.6c-0.8,0.9-1.8,1.4-3.1,1.4c-0.8,0-1.5-0.2-2.2-0.7
		c-0.3-0.3-0.6-0.5-0.9-0.7c-0.7-0.5-1.5-0.6-2.4-0.4c-1.3,0.3-2.4,1.1-3.2,2c-1.1,1.2-1.9,2.6-2.3,4.2c-0.8,3.1-1.7,6.3-2.4,9.4
		c-0.6,2.6-1.2,5.2-1.7,7.8c-0.4,2-0.2,3.8,0.8,5.6c1,1.9,0.4,3.4-1.6,4.2c-0.9,0.3-1.9,0.6-2.8,0.7c-4,0.1-8,0.1-12,0.1
		c-0.7,0-1.4-0.2-2.1-0.4c-0.4-0.1-0.7-0.3-1-0.6c-0.8-0.6-1-1.5-0.5-2.4c0.3-0.7,0.7-1.4,1.1-2c0.9-1.4,1.6-3,2-4.6
		c1.7-7.2,3.9-14.4,5.3-21.7c0.2-0.9,0.4-1.8,0.5-2.7c0.2-1.6-0.1-3.1-1.3-4.3c-0.1-0.1-0.2-0.2-0.3-0.3c-1.7-1.6-0.9-4.2,0.7-5.2
		c0.3-0.2,0.7-0.4,1-0.5c4.1-1.6,8.4-2.6,12.8-2.9c0.6,0,1.2,0,1.7,0c1.2,0.1,1.9,0.8,2,2c0.1,1.1-0.1,2.2-0.1,3.3
		C349.8,92.6,349.8,92.9,349.7,93.5z"/>
	<path class="st1" d="M19.1,136.7c0.5,0.4,0.9,0.6,1.2,0.8c1.8,1.2,3,2.8,3.5,5c0.2,1.1,0.4,2.2,0.4,3.3c0,2.8-0.1,5.6-0.1,8.3
		c0,0.7,0,1.4,0.1,2.1c0.3,2.1,1.1,3,3.1,3.4c0.5,0.1,1,0.2,1.4,0.6c1,1,1.1,4.5,0.1,5.5c-0.4,0.4-1,0.6-1.6,0.6
		c-5.3,0.3-10.2-2.7-10.6-9.4c-0.1-1.7,0-3.4,0-5c0-2,0-4,0-6c0-0.6,0-1.2-0.1-1.7c-0.3-1.9-1.4-3.2-3.2-3.8
		c-0.2-0.1-0.5-0.1-0.7-0.2c-0.8-0.3-1.3-0.8-1.5-1.7c-0.2-1.2-0.2-2.4,0-3.7c0.1-0.8,0.6-1.3,1.3-1.6c0.3-0.2,0.7-0.3,1.1-0.4
		c1.6-0.4,2.6-1.5,2.9-3.1c0.2-1.1,0.3-2.2,0.3-3.3c0-3.2-0.1-6.3-0.1-9.5c0-1.9,0.4-3.7,1.4-5.4c1.7-2.7,4.3-4,7.4-4.4
		c0.7-0.1,1.4-0.1,2.1,0c1,0.1,1.7,0.7,1.8,1.7c0.1,1,0.1,1.9,0,2.9c-0.1,0.8-0.6,1.4-1.4,1.6c-0.6,0.2-1.1,0.3-1.7,0.5
		c-1.1,0.4-1.8,1.3-2,2.5c-0.1,0.7-0.2,1.4-0.2,2.1c0,2.9,0.1,5.8,0.1,8.7c0,1.2-0.2,2.3-0.4,3.5c-0.5,2.2-1.7,3.9-3.5,5.2
		C20,136.1,19.7,136.3,19.1,136.7z"/>
	<path class="st1" d="M147.9,143.2c-1.2,0.8-2.1,1.7-2.9,2.5c-0.3,0.3-0.4,0.8-0.5,1.2c-0.3,1.6-0.6,3.2-0.9,4.8
		c-0.3,1.2-0.6,1.5-1.8,1.5c-1.4,0-2.8,0-4.3,0c-1.1,0-1.5-0.5-1.4-1.6c0.1-0.8,0.2-1.5,0.4-2.3c0.9-4.7,1.8-9.4,2.6-14.1
		c1-5.3,2-10.7,3-16c0-0.3,0.1-0.5,0.2-0.8c0.2-0.9,0.8-1.5,1.8-1.5c1.5-0.1,3-0.1,4.5,0c0.8,0,1.2,0.5,1.2,1.3
		c0,0.4-0.1,0.9-0.2,1.3c-1,5.1-2,10.2-2.9,15.3c-0.1,0.4-0.1,0.9-0.2,1.5c0.4-0.1,0.6-0.2,0.8-0.3c1.3-1.2,2.5-2.4,3.7-3.7
		c1.3-1.3,2.6-2.5,3.8-3.8c0.6-0.6,1.3-1,2.2-0.9c1.7,0,3.4,0,5,0c0.3,0,0.6,0,1,0.1c0.5,0.1,0.8,0.8,0.5,1.2
		c-0.3,0.5-0.7,0.9-1.1,1.3c-2.4,2.3-4.9,4.6-7.4,6.9c-0.5,0.4-0.9,0.9-1.4,1.4c0.4,1.2,1,2.2,1.5,3.2c1.6,3,3.2,5.9,4.8,8.9
		c0.2,0.4,0.4,0.8,0.6,1.2c0.2,0.6-0.1,1.2-0.7,1.4c-0.3,0.1-0.6,0.1-1,0.1c-1.4,0-2.8,0-4.3,0c-1.3,0-2.1-0.5-2.6-1.6
		c-1.1-2.4-2.2-4.7-3.3-7C148.5,144.2,148.3,143.8,147.9,143.2z"/>
	<path class="st1" d="M98.1,129.9c0.2-0.2,0.2-0.2,0.2-0.3c0.8-2.1,0.8-2.1,3.1-2.1c0.9,0,1.8,0,2.7,0c1.4,0.1,1.8,0.5,1.6,1.8
		c-0.1,0.8-0.3,1.7-0.5,2.5c-0.8,4.3-1.6,8.5-2.4,12.8c-0.1,0.6-0.2,1.2-0.2,1.7c0,0.4,0.3,0.7,0.7,0.8c0.5,0.1,1.1,0,1.4,0.5
		c0.4,0.6,0.2,1.3,0.1,1.9c-0.1,0.6-0.2,1.2-0.2,1.7c-0.1,1-0.7,1.6-1.7,1.9c-1.6,0.5-3.2,0.6-4.8,0.3c-1.2-0.2-2-0.8-2.5-1.9
		c-0.1-0.4-0.3-0.7-0.5-1.2c-0.4,0.3-0.8,0.5-1.1,0.8c-2.6,2.5-5.7,3.2-9.1,2.5c-1.8-0.4-3.4-1.3-4.6-2.7c-1.4-1.6-2.3-3.5-2.5-5.6
		c-0.6-6.1,1.1-11.4,5.9-15.5c1.9-1.6,4.1-2.5,6.5-2.8c2.8-0.3,5.3,0.3,7.2,2.5C97.7,129.7,97.9,129.8,98.1,129.9z M96.6,138.4
		c0.3-3.2-1.8-5-4.2-5c-1.9,0-3.4,0.7-4.6,2.2c-1.8,2.2-2.5,4.8-2.2,7.6c0.1,0.6,0.3,1.1,0.5,1.7c0.5,1.2,1.5,2,2.7,2.2
		c1.4,0.3,2.8,0.1,4.1-0.8c1.1-0.8,1.9-1.8,2.4-3C96.2,141.7,96.4,139.8,96.6,138.4z"/>
	<path class="st1" d="M178.8,136.7c-0.7-0.5-1.2-0.9-1.7-1.3c-1.5-1.1-2.4-2.6-2.9-4.5c-0.3-1.5-0.4-3.1-0.4-4.6
		c0-2.6,0.1-5.2,0.1-7.8c0-0.7-0.1-1.4-0.3-2.1c-0.4-1.3-1.2-2.2-2.6-2.6c-2.1-0.6-2.3-1-2.3-3.2c0-0.5,0-1,0-1.6
		c0.2-1.1,0.8-1.8,1.9-1.9c4.8-0.4,10.3,2.4,10.5,8.9c0.1,2.5,0,4.9,0,7.4c0,1.5,0,3,0,4.5c0,2.2,1.6,4.5,3.7,4.9
		c1.4,0.2,1.9,1.2,2,2.5c0.1,0.8,0.1,1.6,0,2.3c-0.1,1.2-0.6,2.2-2,2.6c-2.7,0.8-3.8,2.8-3.8,5.5c0,3.1,0.1,6.2,0.1,9.3
		c0,0.7,0,1.4,0,2.1c-0.4,6.3-5.2,9.4-10.6,9c-1.1-0.1-1.8-0.7-1.8-1.9c-0.1-0.9-0.1-1.8,0-2.7c0.1-1.1,0.6-1.7,1.8-2
		c0.3-0.1,0.5-0.1,0.8-0.1c1.2-0.3,2-1,2.3-2.2c0.2-0.8,0.3-1.7,0.3-2.5c0-2.8-0.1-5.6-0.1-8.4c0-0.8,0-1.7,0.1-2.5
		c0.2-2.7,1.4-4.8,3.6-6.4C177.9,137.4,178.2,137.1,178.8,136.7z"/>
	<path class="st1" d="M45.1,126.9c1.9-0.1,3.7,0.3,5.4,1c1.3,0.5,2.4,1.3,3.3,2.3c0.9,1,0.9,1.4,0,2.3c-0.5,0.6-1.1,1.1-1.6,1.7
		c-1.2,1.1-2.4,1.1-3.5,0c-1.3-1.4-2.9-1.8-4.8-1.5c-0.7,0.1-1.2,0.3-1.7,0.8c-0.9,0.8-0.8,2,0.1,2.6c0.7,0.4,1.5,0.7,2.3,1
		c1.4,0.5,2.8,1,4.2,1.5c3.7,1.3,5.2,4.8,4.1,8.5c-0.8,2.7-2.5,4.6-5,5.6c-4.5,1.8-9,1.9-13.3-0.5c-0.8-0.4-1.5-1-2.2-1.6
		c-1.3-1.3-1.4-2.5-0.1-3.9c0.8-0.8,1.7-1.4,2.7-1.8c0.7-0.3,1.2-0.2,1.7,0.5c1.5,2.3,3.7,2.8,6.3,2.6c0.6-0.1,1.3-0.3,1.8-0.6
		c1.3-0.8,1.3-2.4,0-3.2c-0.4-0.3-0.9-0.4-1.4-0.6c-1.1-0.4-2.2-0.7-3.3-1.1c-0.8-0.3-1.6-0.6-2.3-1c-3.5-2-4.6-5.5-2.8-9.1
		c1-2.2,2.7-3.6,4.9-4.4C41.6,127.2,43.3,126.8,45.1,126.9z"/>
	<path class="st1" d="M127,144.2c2.6,0.6,4.1,1.7,5.1,3.5c-0.2,0.8-0.7,1.5-1.3,2.1c-1.2,1.2-2.5,2.3-4.1,2.9
		c-3,1.2-6.1,1.6-9.3,0.8c-4.1-1-7.1-4.3-7.8-8.5c-0.9-6.2,1-11.4,6-15.2c4-3,8.6-3.6,13.4-1.9c1.6,0.5,2.8,1.5,3.9,2.8
		c0.4,0.5,0.7,1.1,1,1.7c0.7,1.7,0.4,2.5-1.3,3.2c-1.1,0.5-2.3,0.9-3.5,1.3c-0.8,0.3-1.2,0-1.6-0.7c-0.1-0.2-0.2-0.4-0.2-0.5
		c-0.8-1.8-2.3-2.3-4.2-2.2c-1.7,0.2-3.1,1-4.1,2.3c-1.7,2.2-2.3,4.8-1.9,7.5c0.2,1.3,0.7,2.5,1.9,3.3c1.5,1,3.2,1,4.8,0.3
		c0.8-0.3,1.4-0.9,2-1.4C126.3,145.1,126.6,144.6,127,144.2z"/>
	<path class="st1" d="M454.5,173c-4.3,0-8.7,0-13,0c-0.9,0-1.8,0-2.7-0.2c-2.2-0.5-3.3-2.4-2.8-4.6c0.5-2.4,2-3.9,4.3-4.6
		c1-0.3,2-0.4,3.1-0.4c5.9,0,11.8,0,17.7,0c3.4,0,6.7,0,10.1,0c0.9,0,1.7,0.1,2.5,0.4c1.2,0.5,2,1.4,2.1,2.8c0.2,2-0.5,3.7-2.1,5
		c-1.1,0.9-2.3,1.4-3.7,1.5c-0.8,0.1-1.7,0.1-2.5,0.1C463.1,172.9,458.8,172.9,454.5,173C454.5,172.9,454.5,172.9,454.5,173z"/>
	<path class="st1" d="M437.5,218.7c-4.7-0.1-9.3-0.3-14-0.5c-0.8,0-1.5-0.2-2.3-0.4c-1.3-0.4-2-1.4-2.1-2.7
		c-0.2-2.1,0.6-3.7,2.3-4.8c1.1-0.8,2.3-1.2,3.6-1.3c0.6,0,1.2-0.1,1.7,0c8.8,0.1,17.6,0.2,26.4,0.3c1,0,1.9,0.2,2.8,0.6
		c1.1,0.5,1.7,1.4,1.9,2.5c0.3,1.9-0.3,3.4-1.6,4.8c-1.2,1.1-2.6,1.7-4.2,1.8c-0.8,0-1.7,0-2.5,0C445.5,219,441.5,218.9,437.5,218.7
		C437.5,218.8,437.5,218.7,437.5,218.7z"/>
	<path class="st1" d="M61.7,134c-0.8-0.5-1.6-0.3-2.4-0.4c-1-0.1-1.3-0.4-1.2-1.4c0.1-1.2,0.4-2.3,0.6-3.4c0.1-0.7,0.6-1.1,1.4-1.2
		c0.7,0,1.4-0.1,2.1-0.1c0.2,0,0.5-0.1,0.8-0.2c0.3-0.8,0.4-1.6,0.6-2.4c0.1-0.8,0.3-1.7,0.4-2.5c0.2-1.1,0.9-1.8,2-1.8
		c1.5-0.1,3-0.1,4.5,0c0.7,0,1.2,0.6,1.1,1.3c0,0.5-0.2,1-0.2,1.5c-0.2,1.3-0.6,2.5-0.5,3.8c0.8,0.4,1.5,0.3,2.2,0.3
		c0.8,0,1.7,0,2.5,0.1c0.7,0.1,1.1,0.5,1,1.2c-0.2,1.2-0.4,2.4-0.7,3.6c-0.2,0.9-0.6,1.2-1.5,1.2c-1,0-1.9,0-2.9,0
		c-0.6,0-1.3-0.1-2,0.4c-0.1,0.4-0.2,0.9-0.3,1.4c-0.5,2.7-1.1,5.5-1.6,8.2c-0.1,0.5-0.2,1-0.1,1.5c0.1,1.4,0.9,2.1,2.3,2.1
		c0.7,0,1.4-0.2,2.1-0.3c0.9-0.1,1.4,0.2,1.4,1.1c0.1,1.1,0,2.2,0,3.3c0,0.7-0.4,1.2-1.1,1.5c-2.9,1.2-5.8,1.5-8.7,0.3
		c-1.9-0.8-3.1-2.3-3.6-4.3c-0.3-1.3-0.3-2.6-0.1-3.9c0.5-3,1-6,1.5-9C61.5,135.3,61.6,134.6,61.7,134z"/>
	<path class="st0" d="M309.9,269.7c1-0.3,1-0.3,2.1,0c0.8,1.5,0.8,3.3,1.8,4.9c1-1.6,1.1-3.5,1.9-4.9c0.7-0.3,1.3-0.3,2,0
		c0.5,0.7,0.7,1.6,1,2.5c0.3,0.8,0.4,1.7,1.1,2.6c0.5-0.9,0.7-1.8,1-2.6c0.2-0.8,0.5-1.6,0.7-2.4c0.8-0.3,1.5-0.3,2.3-0.1
		c-0.1,1.6-0.9,3-1.4,4.4c-0.4,1.4-0.9,2.8-1.3,4.2c-0.8,0.4-1.5,0.3-2.3,0.1c-0.6-0.7-0.7-1.6-1-2.5c-0.3-0.8-0.4-1.7-1.1-2.7
		c-0.7,1.9-1.2,3.5-1.8,5.1c-0.5,0-0.9,0.1-1.3,0.1c-0.3,0-0.6-0.1-0.9-0.1C311.8,276.6,310.1,271.4,309.9,269.7z"/>
	<path class="st0" d="M152.3,265.7c0.6-0.1,0.9-0.2,1.2-0.2c0.3,0,0.6,0.1,0.9,0.1c0.6,1.3,0,2.7,0.4,4.2c0.5-0.2,1-0.3,1.5-0.4
		c2.5-0.7,4.5,0.4,5.3,2.9c0.3,1.1,0.4,2.2,0,3.2c-0.8,2.5-3,3.6-5.5,2.8c-0.4-0.1-0.7-0.3-1.1-0.4c-0.8,0.6-1.6,0.8-2.7,0.3
		c-0.2-2-0.1-4.1-0.1-6.1C152.2,270,152.1,268,152.3,265.7z M154.6,273.9c0,1.5,1,2.5,2.3,2.5c1.3,0,2.3-1.2,2.3-2.6
		c0-1.4-1.1-2.5-2.4-2.5C155.5,271.4,154.6,272.4,154.6,273.9z"/>
	<path class="st0" d="M266.3,269.2c3,0,4.8,2.3,4.9,4.5c0,2.8-1.9,4.9-4.8,4.9c-2.7,0-4.7-1.8-4.7-4.6
		C261.7,271.5,263.1,269.4,266.3,269.2z M266.5,276.4c1.3,0,2.3-1.1,2.3-2.6c0-1.5-1.1-2.5-2.4-2.5c-1.4,0-2.3,1.1-2.3,2.6
		C264.1,275.4,265.1,276.5,266.5,276.4z"/>
	<path class="st0" d="M333.8,272.9c0.2-0.8-0.2-1.2-0.8-1.4c-0.6-0.3-1.3-0.2-1.9,0c-0.5,0.2-0.9,0.4-1.5,0.6
		c-0.3-0.5-0.5-0.9-0.8-1.4c0.3-0.3,0.6-0.6,0.9-0.8c1.3-0.6,2.6-0.9,4-0.5c1.7,0.4,2.6,1.4,2.7,3.1c0.1,1.9,0.1,3.7,0,5.6
		c-1,0.7-1.8,0.2-2.6-0.1c-1,0.7-2,0.8-3.1,0.6c-1.6-0.3-2.5-1.4-2.3-3c0.1-1.2,0.8-2.1,2-2.4c0.7-0.2,1.5-0.2,2.3-0.2
		C332.9,272.9,333.3,272.9,333.8,272.9z M333.9,274.8c-1.2-0.3-1.8-0.3-2.4-0.1c-0.5,0.2-0.8,0.6-0.7,1c0,0.5,0.4,0.9,0.8,1
		c0.6,0.2,1.2,0.1,1.6-0.3C333.6,276,334.1,275.6,333.9,274.8z"/>
	<path class="st0" d="M346,275.2c0.9-1.9,1.4-3.7,2.2-5.4c1-0.4,1-0.4,2.3-0.1c-0.1,0.4-0.2,0.9-0.3,1.3c-1.1,2.8-2.2,5.7-3.4,8.5
		c-0.2,0.5-0.4,0.9-0.7,1.4c-0.9,1.2-2.4,1.6-3.8,1.1c-0.4-0.1-0.6-0.5-0.5-0.9c0.2-0.7,0.4-1,1.1-1.1c0.2,0,0.4,0,0.6,0
		c1-0.2,1.5-1.1,1.1-2.1c-0.7-1.9-1.5-3.7-2.3-5.6c-0.3-0.8-0.6-1.5-1-2.4c0.7-0.7,1.5-0.4,2.3-0.4C344.7,271.2,345,273.2,346,275.2
		z"/>
	<path class="st0" d="M167.8,269.6c0.6,0,1.2,0,1.9,0c0.1,0.5,0.2,0.9,0.2,1.4c0,1.2,0,2.5,0,3.7c0,1.1,0.6,1.7,1.6,1.8
		c1,0,1.8-0.6,1.9-1.5c0.1-0.5,0.1-1,0.1-1.5c0-1.2,0-2.3,0.1-3.4c1-0.5,1-0.5,2.1-0.2c0.3,1.4,0.4,6.4,0.1,8.4
		c-1.2,0.4-1.2,0.4-2.6-0.2c-0.9,0.5-2,0.8-3.1,0.6c-1.3-0.2-2.1-0.9-2.4-2.2C167.5,275.4,167.5,270.9,167.8,269.6z"/>
	<path class="st0" d="M257.3,269.6c-0.3,0.9-0.5,1.6-0.8,2.3c-0.9,2.3-1.8,4.6-2.7,6.9c-0.2,0.5-0.4,1.1-0.7,1.6
		c-1,1.8-2.7,2.2-4.7,1.1c0.1-0.4,0.3-0.9,0.5-1.5c0.4,0,0.8,0.1,1.2,0c1-0.2,1.5-1,1.3-2c-0.1-0.3-0.2-0.6-0.4-0.9
		c-0.8-1.9-1.6-3.8-2.3-5.8c-0.2-0.5-0.3-1-0.5-1.5c0.7-0.4,1.4-0.3,2.2-0.2c1,1.6,1.4,3.5,2.2,5.1c0.5,0,0.6-0.3,0.7-0.6
		c0.4-1,0.8-2.1,1.2-3.1c0.2-0.5,0.4-0.9,0.7-1.4C255.8,269.6,256.4,269.6,257.3,269.6z"/>
	<path class="st0" d="M279.1,269.8c0,1.1,0,2.3,0,3.4c0,0.5,0,1,0.1,1.5c0.1,0.9,0.5,1.4,1.3,1.5c0.9,0.2,1.7-0.2,2.1-1
		c0.2-0.4,0.3-0.9,0.3-1.3c0.1-0.9,0-1.8,0.1-2.7c0-0.5,0.1-1,0.1-1.5c1-0.3,1-0.3,1.9-0.2c0.4,1.3,0.5,6.3,0.2,8.4
		c-0.5,0.5-1.3,0.5-1.8,0.2c-0.7-0.4-1.2-0.2-1.8,0c-0.5,0.2-1,0.2-1.5,0.2c-2,0-3.1-1-3.3-3c0-0.4,0-0.9,0-1.4c0-1.5,0.1-3,0.1-4.4
		C277.9,269.4,277.9,269.4,279.1,269.8z"/>
	<path class="st0" d="M230,271.7c-0.5-0.3-0.8-0.4-1.2-0.7c0-0.4,0-0.8-0.1-1.3c0.4-0.2,0.7-0.4,1.1-0.6c0.1-0.6,0.2-1.2,0.3-1.8
		c0.7-0.6,1.3-0.3,2.1-0.3c0.1,0.4,0.1,0.7,0.2,1c0,0.3,0.1,0.6,0.1,1.1c0.7,0.1,1.3,0.3,2,0.4c0.4,0.5,0.3,1-0.1,1.7
		c-0.6,0.1-1.2,0.2-1.9,0.3c-0.2,1.3-0.2,2.5-0.1,3.7c0.1,0.6,0.3,0.9,1,1c0.2,0,0.4,0,0.6,0c0.2,0,0.4,0.1,0.5,0.1
		c0.1,0.1,0.2,0.2,0.3,0.3c0.3,1.3,0.1,1.7-1.2,1.8c-0.3,0-0.6,0-1,0c-1.5-0.2-2.4-0.9-2.6-2.4c-0.1-0.8-0.1-1.5-0.1-2.3
		C230,273.1,230,272.5,230,271.7z"/>
	<path class="st0" d="M201.4,271.8c-0.5-0.2-0.9-0.4-1.3-0.6c0-0.4,0-0.9-0.1-1.3c0.4-0.2,0.8-0.4,1.3-0.6c0.1-0.6,0.2-1.2,0.3-1.8
		c0.6-0.5,1.2-0.4,2-0.2c0.1,0.6,0.3,1.3,0.4,2c0.6,0.1,1.2,0.3,1.9,0.4c0.1,0.2,0.2,0.4,0.2,0.7c0,0.8-0.2,0.9-0.8,1.1
		c-0.2,0-0.4,0-0.6,0c-0.2,0-0.4,0.1-0.6,0.2c-0.4,1.3-0.3,2.6-0.2,4c0,0.4,0.4,0.7,0.8,0.8c0.3,0.1,0.5,0,0.8,0.1
		c0.6,0.1,1,0.6,0.9,1.3c0,0.4-0.3,0.8-0.9,0.9c-0.6,0.1-1.2,0.1-1.7,0c-1.3-0.2-2.1-1-2.2-2.3c-0.1-0.8,0-1.5-0.1-2.3
		C201.5,273.2,201.4,272.5,201.4,271.8z"/>
	<path class="st2" d="M364,273.2c0.1-1.8,1.5-3.1,3.1-3c1.7,0.1,3.1,1.8,3,3.4c-0.1,1.6-1.7,3-3.3,2.9
		C365,276.3,363.9,275,364,273.2z"/>
	<path class="st2" d="M138.5,273.4c0,1.8-1.4,3.1-3,3.1c-1.7,0-3.1-1.5-3-3.1c0-1.7,1.4-3.1,3.1-3.1
		C137,270.2,138.6,271.6,138.5,273.4z"/>
	<path class="st0" d="M291.4,278.2c0-2.6,0-4.9,0-7.3c0-0.4,0-0.8,0.1-1.2c1-0.5,1.9-0.3,2.7,0.3c0.8-0.3,1.5-0.9,2.4-0.5
		c0.4,0.6,0.3,1.2,0.1,2c-0.4,0.1-0.8,0.2-1.2,0.3c-1,0.3-1.5,0.9-1.6,1.9c0,1,0,1.9-0.1,2.9c0,0.5-0.1,1-0.1,1.5
		C293,278.6,292.3,278.4,291.4,278.2z"/>
	<path class="st0" d="M194,278.3c-0.6,0.1-0.9,0.1-1.2,0.1c-0.2,0-0.5-0.1-0.8-0.1c-0.1-0.3-0.2-0.6-0.2-0.9c0-3.6,0-7.2,0-10.9
		c0-0.2,0.1-0.4,0.2-0.6c0.6-0.4,1.3-0.3,2.1-0.1c0.1,0.4,0.2,0.8,0.2,1.1C194.1,270.7,194.3,274.4,194,278.3z"/>
	<path class="st1" d="M138.5,163c0.8,0,1.6,0,2.3,0c0.8,0.1,1.4,0.7,1.5,1.5c0.1,0.8-0.5,1.6-1.2,1.8c-0.2,0.1-0.4,0.1-0.6,0.1
		c-1.4,0-2.8,0-4.3,0c-0.2,0-0.4,0-0.6-0.1c-0.7-0.2-1.3-1-1.3-1.7c0-0.8,0.7-1.5,1.4-1.6c0.1,0,0.3,0,0.4,0
		C136.9,163,137.7,163,138.5,163C138.5,163,138.5,163,138.5,163z"/>
	<path class="st1" d="M138.3,111.7c-0.7,0-1.4,0-2.1,0c-1,0-1.7-1.1-1.7-1.8c0-0.9,0.7-1.6,1.6-1.7c1.5-0.1,3.1-0.1,4.6,0
		c1,0,1.6,0.8,1.6,1.8c0,0.9-0.6,1.6-1.5,1.7C139.9,111.8,139.1,111.7,138.3,111.7C138.3,111.7,138.3,111.7,138.3,111.7z"/>
	<path class="st1" d="M59.8,111.7c-0.7,0-1.4,0-2.1,0c-1-0.1-1.6-0.8-1.6-1.8c0-0.9,0.6-1.6,1.6-1.6c1.5-0.1,3.1-0.1,4.6,0
		c0.9,0,1.5,0.7,1.5,1.7c0,0.9-0.5,1.7-1.5,1.7C61.5,111.8,60.7,111.7,59.8,111.7C59.8,111.7,59.8,111.7,59.8,111.7z"/>
	<path class="st1" d="M59.6,166.5c-0.7,0-1.4,0.1-2.1,0c-1-0.1-1.7-0.8-1.6-1.8c0-0.9,0.7-1.6,1.6-1.6c1.5-0.1,3.1-0.1,4.7,0
		c0.9,0,1.4,0.7,1.4,1.5c0,0.9-0.4,1.6-1.2,1.7C61.4,166.5,60.5,166.5,59.6,166.5C59.6,166.5,59.6,166.5,59.6,166.5z"/>
	<path class="st1" d="M91.1,166.4c-0.8,0-1.6,0.1-2.3,0c-1.4-0.2-1.9-1.7-1.1-2.8c0.2-0.3,0.6-0.6,1-0.6c1.7-0.1,3.3-0.1,5,0
		c0.9,0,1.3,0.7,1.3,1.6c0,0.9-0.4,1.6-1.2,1.7C92.9,166.5,92,166.5,91.1,166.4C91.1,166.5,91.1,166.5,91.1,166.4z"/>
	<path class="st1" d="M155,111.7c-0.8,0-1.6,0.1-2.3,0c-1.3-0.2-1.9-1.8-1.1-2.8c0.3-0.4,0.7-0.6,1.2-0.6c1.6,0,3.1,0,4.7,0
		c0.9,0,1.6,0.8,1.6,1.6c0.1,0.8-0.6,1.7-1.5,1.8C156.7,111.8,155.9,111.7,155,111.7C155,111.7,155,111.7,155,111.7z"/>
	<path class="st1" d="M107.1,111.7c-0.8,0-1.6,0-2.3,0c-0.9-0.1-1.4-0.7-1.5-1.5c-0.1-0.9,0.5-1.8,1.3-1.9c1.6-0.1,3.2-0.1,4.8-0.1
		c0.8,0,1.3,0.7,1.3,1.6c0,0.9-0.4,1.6-1.2,1.7c-0.4,0.1-0.9,0.1-1.4,0.1C107.8,111.8,107.5,111.7,107.1,111.7z"/>
	<path class="st1" d="M91.5,111.7c-0.8,0-1.5,0.1-2.3,0c-1-0.1-1.6-0.9-1.5-1.9c0.1-0.9,0.6-1.5,1.6-1.6c1.5-0.1,3-0.1,4.4,0
		c0.9,0,1.5,0.7,1.5,1.7c0,0.9-0.5,1.7-1.4,1.8C93,111.8,92.2,111.7,91.5,111.7z"/>
	<path class="st1" d="M154.8,166.5c-0.7,0-1.4,0-2.1,0c-1.1-0.1-1.7-0.7-1.7-1.8c0-1,0.6-1.7,1.7-1.7c1.4,0,2.8,0,4.3,0
		c1,0,1.6,0.6,1.7,1.5c0.1,1-0.5,1.8-1.5,1.9C156.3,166.5,155.6,166.4,154.8,166.5C154.8,166.4,154.8,166.4,154.8,166.5z"/>
	<path class="st1" d="M43.7,111.7c-0.7,0-1.4,0-2.1,0c-1-0.1-1.7-0.8-1.6-1.8c0-0.9,0.6-1.6,1.6-1.6c1.5-0.1,3-0.1,4.5,0
		c0.9,0,1.5,0.7,1.5,1.7c0,1-0.5,1.6-1.5,1.7C45.3,111.8,44.5,111.7,43.7,111.7C43.7,111.7,43.7,111.7,43.7,111.7z"/>
	<path class="st0" d="M184.8,269.5c0.2,1.9,0.2,7.2,0,8.7c-0.6,0.3-1.3,0.3-1.9,0c-0.3-1.4-0.4-6.1-0.1-8.6
		C183.3,269.2,184,269.3,184.8,269.5z"/>
	<path class="st1" d="M43.6,166.5c-0.8,0-1.5,0-2.3,0c-0.9-0.1-1.6-0.7-1.6-1.6c-0.1-0.9,0.6-1.8,1.6-1.8c1.5-0.1,3.1-0.1,4.6,0
		c0.9,0,1.5,0.8,1.5,1.7c0,0.9-0.6,1.6-1.5,1.7C45.1,166.5,44.4,166.4,43.6,166.5C43.6,166.4,43.6,166.5,43.6,166.5z"/>
	<path class="st1" d="M122.5,111.7c-0.6,0-1.3,0-1.9,0c-1.1-0.1-1.8-0.7-1.8-1.6c0-1,0.6-1.8,1.7-1.9c1.4,0,2.8,0,4.2,0
		c0.8,0,1.3,0.5,1.5,1.2c0.3,1.1-0.3,2.1-1.5,2.2C124.1,111.8,123.3,111.7,122.5,111.7C122.5,111.7,122.5,111.7,122.5,111.7z"/>
	<path class="st1" d="M106.8,166.4c-0.7,0-1.4,0.1-2.1,0c-1.1-0.1-1.6-0.8-1.6-1.8c0-1,0.6-1.6,1.6-1.6c1.5-0.1,3-0.1,4.5,0
		c1,0,1.6,0.7,1.6,1.6c0.1,0.8-0.5,1.7-1.4,1.8C108.5,166.5,107.7,166.5,106.8,166.4C106.8,166.5,106.8,166.5,106.8,166.4z"/>
	<path class="st1" d="M75.8,108.3c0.8,0,1.6-0.1,2.3,0c0.9,0.1,1.4,0.8,1.4,1.8c0,0.9-0.5,1.6-1.3,1.6c-1.6,0.1-3.2,0.1-4.8,0
		c-0.9-0.1-1.4-0.9-1.3-1.8c0.1-0.9,0.6-1.5,1.4-1.5C74.3,108.2,75.1,108.3,75.8,108.3C75.8,108.3,75.8,108.3,75.8,108.3z"/>
	<path class="st1" d="M122.7,163c0.7,0,1.4,0,2.1,0c0.9,0.1,1.4,0.7,1.5,1.5c0.1,0.9-0.5,1.7-1.3,1.9c-0.2,0.1-0.5,0.1-0.8,0.1
		c-1.4,0-2.7,0-4.1,0c-0.9-0.1-1.5-0.8-1.5-1.7c0-0.9,0.6-1.6,1.5-1.7c0.1,0,0.3,0,0.4,0C121.2,163,122,163,122.7,163
		C122.7,163,122.7,163,122.7,163z"/>
	<path class="st1" d="M75.5,163c0.8,0,1.6-0.1,2.3,0c0.8,0.1,1.3,0.6,1.4,1.4c0.1,0.8-0.3,1.6-1.1,1.9c-0.2,0.1-0.5,0.1-0.8,0.1
		c-1.2,0-2.5,0-3.7,0c-0.3,0-0.5,0-0.8-0.1c-0.7-0.2-1.2-0.9-1.2-1.6c0-0.8,0.5-1.5,1.3-1.7c0.1,0,0.3-0.1,0.4-0.1
		C74.1,163,74.8,163,75.5,163C75.5,163,75.5,163,75.5,163z"/>
	<path class="st0" d="M222.6,278.4c-0.6,0-1.2,0-1.7,0c-0.4-1.4-0.4-5.9-0.1-8.6c0.5-0.4,1.2-0.3,1.9-0.1c0.5,0.9,0.2,1.9,0.3,2.8
		c0,1,0,2.1,0,3.1C222.8,276.5,223.1,277.4,222.6,278.4z"/>
	<path class="st0" d="M185.2,266.7c0.1,0.7-0.5,1.4-1.3,1.4c-0.8,0-1.4-0.5-1.4-1.3c0-0.8,0.5-1.3,1.3-1.4
		C184.5,265.4,185.1,265.9,185.2,266.7z"/>
	<path class="st0" d="M223.1,266.8c0,0.7-0.7,1.3-1.5,1.2c-0.7-0.1-1.2-0.6-1.2-1.3c0-0.7,0.6-1.3,1.4-1.3
		C222.5,265.4,223.1,266,223.1,266.8z"/>
	<path class="st2" d="M96,245.6c-3.7-0.1-9.6-0.1-15.4-0.3c-4.6-0.2-9.2-0.6-13.7-1c-1.8-0.1-3.6-0.3-5.4-0.5
		c-2.9-0.3-5.8-0.7-8.7-1c-4.2-0.6-8.3-1.5-12.4-2.4c-3.4-0.8-6.7-2.1-9.7-3.9c-2-1.2-3.7-2.9-4.9-4.9c-1.7-2.8-2.8-5.8-3.1-9.1
		c0-0.6-0.2-1.1-0.2-1.7c0-0.6-0.1-1.3,0-1.9c0.2-1.4,1-1.9,2.3-1.4c4.6,1.6,9.4,2.5,14.1,3.4c2.2,0.4,4.5,0.7,6.7,1
		c6.3,0.9,12.6,1.6,18.9,2c3.7,0.3,7.4,0.6,11,0.9c0.4,0,0.8,0.1,1.2,0.1c11.5,0.5,22.9,0.7,34.4,0.4c4.8-0.1,9.6-0.4,14.4-0.7
		c3.4-0.2,6.7-0.4,10.1-0.7c5.2-0.5,10.4-1,15.6-1.8c4.2-0.6,8.3-1.2,12.4-2c3.2-0.7,6.3-1.3,9.4-2.4c0.2-0.1,0.5-0.2,0.7-0.2
		c1.3-0.3,2.1,0.2,2.3,1.6c0.1,0.7,0.1,1.4,0,2.1c-0.4,3.3-1,6.5-2.7,9.5c-1.5,2.6-3.5,4.7-6.1,6.1c-3.2,1.8-6.6,3-10.1,3.8
		c-6.3,1.4-12.7,2.4-19.2,3.1c-4.1,0.4-8.1,0.8-12.2,1.2C116.6,245.5,107.4,245.5,96,245.6z M63,233.1c1.5-0.1,4-0.2,6.4-0.4
		c1-0.1,2.1-0.2,3.1-0.4c0.4-0.1,0.7-0.2,1.1-0.4c0.6-0.3,0.6-1.1,0-1.4c-0.7-0.5-1.4-0.6-2.2-0.7c-2.1-0.2-4.2-0.4-6.4-0.6
		c-2.4-0.3-4.7-0.6-7.1-0.9c-4.8-0.5-9.6-1.1-14.4-2.1c-2.7-0.5-5.3-1-8-1.5c-1.3-0.3-2.6-0.7-4-1c-0.7-0.1-1.4-0.2-2.1-0.2
		c-0.6,0-0.9,0.6-0.6,1.1c0.4,0.5,0.8,1,1.3,1.4c0.5,0.4,1.1,0.8,1.6,1c2.3,0.9,4.5,1.9,6.9,2.6C46.4,232,54.2,233,63,233.1z"/>
	<path class="st2" d="M97.4,93.3c-2.7,0-5.3,0-8,0c-6.1-0.1-12.3-0.2-18.4-0.4c-3.4-0.1-6.9-0.2-10.3-0.4
		c-5.1-0.2-10.2-0.4-15.3-0.8c-4.6-0.4-9.2-0.5-13.7-1.4c-1.3-0.2-2.6-0.3-3.8-0.5c-2.1-0.3-4-1-5.7-2.3c-1.7-1.3-2.6-3.1-2.4-5.2
		c0.2-1.7,0.4-3.5,0.9-5.2c1.4-5.1,3.6-9.8,6.6-14.2c4.1-6,9-11.2,14.7-15.6c7.5-5.8,15.7-10.2,24.7-13.3c5-1.7,10-3,15.2-4.1
		c2-0.4,4-0.7,6-0.9c4.2-0.4,8.4-0.8,12.6-0.8c7.7,0.1,15.4,0.9,22.9,2.7c4.5,1.1,8.9,2.5,13.1,4.3c6.9,3,13.5,6.6,19.3,11.5
		c3.2,2.7,6.4,5.5,8.9,8.9c1.2,1.7,2.5,3.3,3.8,4.9c1.8,2.3,3,4.8,4.3,7.4c1,2,1.6,4.1,2.4,6.1c0.3,0.8,0.5,1.7,0.7,2.6
		c0.7,2.3,0.7,4.7,0.5,7.1c-0.1,1.5-1,2.7-2.1,3.6c-1.7,1.3-3.8,2.1-5.9,2.4c-3.8,0.6-7.7,1.2-11.5,1.5c-5,0.4-9.9,0.9-14.9,0.9
		c-4.9,0.1-9.8,0.2-14.8,0.5c-5.3,0.3-10.6,0.2-15.9,0.4C106.5,93.3,101.9,93.3,97.4,93.3C97.4,93.4,97.4,93.4,97.4,93.3z
		 M123.1,85.8c0.8,0.5,1.5,0.4,2.1,0.4c2.8,0,5.6-0.1,8.3-0.3c5.7-0.4,11.5-0.9,17.2-1.7c3.5-0.5,6.9-1.3,10.2-2.5
		c2-0.7,3.8-1.9,5.2-3.6c1-1.2,1.5-2.6,1.7-4.3c0.2-2.8-0.7-5.2-1.9-7.6c-0.2-0.4-0.6-0.7-0.9-1c-0.4-0.3-1-0.1-1.1,0.4
		c-0.1,0.6-0.1,1.2-0.2,1.7c-0.4,3.4-1.8,6.3-4.8,8.3c-1.2,0.8-2.4,1.5-3.7,2.1c-4.4,2.2-9.1,3.3-13.8,4.3
		c-5.2,1.1-10.6,1.8-15.8,2.7C124.8,85,124,85.1,123.1,85.8z M38.5,67.1c0,2.7,1.8,4,3.9,3.4c1-0.3,1.9-0.8,2.7-1.5
		c1.8-1.6,3.1-3.6,3.9-5.9c0.2-0.5,0.3-1,0.3-1.5c0-1.8-1.5-3.1-3.4-2.8c-0.4,0.1-0.9,0.2-1.3,0.5c-2.5,1.4-4.5,3.3-5.5,6
		C38.8,65.9,38.6,66.7,38.5,67.1z M115.8,56.5c0-0.1,0-0.4-0.1-0.6c-1-2.3-2.7-4-5.3-4.4c-1.9-0.3-3.5,1.4-3,3.2
		c0.6,2.6,2,4.2,4.9,4.9C114,60,115.9,58.4,115.8,56.5z M85.7,56.9c0.1,0,0.4-0.1,0.6-0.1c2.6-0.6,4-2.5,4.7-5
		c0.4-1.3-0.8-2.7-2.2-2.9c-0.5,0-1,0-1.5,0.2c-1.7,0.5-3,1.6-3.9,3c-0.4,0.6-0.6,1.3-0.6,2C82.8,55.7,84.1,56.9,85.7,56.9z
		 M60.1,47.5c-2.3,0-5.1,2-5.9,4c-0.1,0.2-0.2,0.5-0.2,0.7c-0.2,1.9,1.6,3.2,3,2.7c2-0.7,3.8-1.7,4.8-3.6c0.2-0.4,0.4-0.9,0.5-1.4
		c0.2-1.2-0.6-2.1-1.8-2.4C60.4,47.5,60.2,47.5,60.1,47.5z M76.4,38.2c-1.8,0-4.2,1.1-5.3,2.6c-0.3,0.4-0.5,0.9-0.7,1.4
		c-0.4,1.7,0.7,3.1,2.5,3.1c0.5,0,1-0.1,1.5-0.3c1.9-0.6,3.5-1.7,4.3-3.6c0.4-0.9,0.2-1.8-0.5-2.5C77.7,38.4,77.1,38.2,76.4,38.2z
		 M146.3,57.5c-0.1-0.2-0.1-0.7-0.3-1.1c-1.1-2-2.7-3.3-4.9-3.7c-1.6-0.3-2.8,0.8-2.8,2.4c0,0.9,0.3,1.7,0.8,2.4
		c0.8,1.1,1.7,1.9,3,2.4c0.6,0.2,1.3,0.4,1.9,0.3C145.3,60.2,146.3,59.2,146.3,57.5z M130.1,43.9c-0.1-0.9-0.5-1.7-1.2-2.3
		c-1.1-1-2.3-1.7-3.7-2c-0.4-0.1-0.9-0.2-1.3-0.1c-1.7,0.2-2.6,1.6-2,3.2c0.1,0.3,0.3,0.6,0.4,0.9c1.1,1.6,2.7,2.6,4.7,2.8
		c0.6,0.1,1.2,0,1.7-0.2C129.5,45.7,130,44.9,130.1,43.9z M100.7,41.1c0.6-0.2,1.4-0.3,2.1-0.7c1.9-1,2.1-2.9,0.6-4.3
		c-1.4-1.3-4.5-1.6-6.2-0.5c-1.4,1-1.6,2.7-0.5,4C97.7,40.7,99.1,40.9,100.7,41.1z M66,65.6c0.1,0,0.4,0,0.6-0.1
		c2.3-0.9,3.6-2.6,4.3-4.9c0.2-0.8-0.1-1.5-0.7-2.1c-0.5-0.4-1-0.5-1.6-0.5c-2.2,0.1-5.1,2.8-5.2,5C63.3,64.5,64.4,65.6,66,65.6z"/>
	<g>
		<path class="st3" d="M180.3,189.1c-0.6-4.1-4.7-6.6-11.4-8c-7.5,5.9-16.4,12.9-17.2,13.4c-1.3,0.9-4.6,0.9-5.9-0.8
			s1.9-4.3,1.9-4.3l12.2-9.5c-5.5-0.4-11.9-0.6-19.1-0.6c-7.9,6.2-19.6,15.5-20.5,16c-1.3,0.9-4.6,0.9-5.9-0.8
			c-1.3-1.7,1.9-4.3,1.9-4.3l13.9-10.9c-6.7,0.1-13.8,0.2-21.2,0.2c-7.9,6.2-19.4,15.2-20.2,15.8c-1.3,0.9-4.6,0.9-5.9-0.8
			c-1.3-1.7,1.9-4.3,1.9-4.3l13.7-10.8c-7-0.1-13.7-0.2-20.1-0.2c-7.9,6.2-18.4,14.5-19.2,15c-1.3,0.9-4.6,0.9-5.9-0.8
			s1.9-4.3,1.9-4.3l12.7-10c-6.6,0-12.7,0.1-18.2,0.3c-7,5.5-14.3,11.3-15,11.7c-1.3,0.9-4.6,0.9-5.9-0.8s1.9-4.3,1.9-4.3l7.4-5.8
			c-11.2,1.2-18.2,3.7-18.9,8.5c-1.3,8.9,35.9,12.5,80,12.5S181.3,196.2,180.3,189.1z"/>
		<path class="st0" d="M28.8,190.5c1.3,1.7,4.7,1.7,5.9,0.8c0.7-0.5,8-6.2,15-11.7c-4.2,0.2-8.1,0.4-11.6,0.8l-7.4,5.8
			C30.8,186.3,27.5,188.8,28.8,190.5z"/>
		<path class="st0" d="M53.3,193.6c1.3,1.7,4.7,1.7,5.9,0.8c0.8-0.6,11.4-8.9,19.2-15c-3.6,0-7.1,0-10.5,0l-12.7,10
			C55.3,189.3,52,191.9,53.3,193.6z"/>
		<path class="st0" d="M82.9,194.6c1.3,1.7,4.7,1.7,5.9,0.8c0.8-0.6,12.3-9.6,20.2-15.8c-3.3,0-6.6,0-10,0c-0.2,0-0.3,0-0.5,0
			l-13.7,10.8C84.8,190.3,81.6,192.9,82.9,194.6z"/>
		<path class="st0" d="M114.4,194.6c1.3,1.7,4.7,1.7,5.9,0.8c0.8-0.6,12.6-9.8,20.5-16c-3.4,0-6.9,0-10.6,0.1l-13.9,10.9
			C116.3,190.3,113,192.9,114.4,194.6z"/>
		<path class="st0" d="M145.7,193.8c1.3,1.7,4.7,1.7,5.9,0.8c0.7-0.5,9.7-7.5,17.2-13.4c-2.6-0.5-5.6-0.9-9-1.2l-12.2,9.5
			C147.7,189.5,144.4,192.1,145.7,193.8z"/>
	</g>
</g>
</svg>
