<?xml version="1.0" encoding="utf-8"?>
<!-- Generator: Adobe Illustrator 22.1.0, SVG Export Plug-In . SVG Version: 6.00 Build 0)  -->
<svg version="1.1" id="레이어_1" xmlns="http://www.w3.org/2000/svg" xmlns:xlink="http://www.w3.org/1999/xlink" x="0px"
	 y="0px" viewBox="0 0 200 200" style="enable-background:new 0 0 200 200;" xml:space="preserve">
<style type="text/css">
	.st0{fill:#1F2936;}
	.st1{fill:#309B9B;}
	.st2{fill:#236ABE;}
</style>
<g>
	<g>
		<g>
			<path class="st0" d="M12.9,181.4c1.2,1,1.8,2.6,1.8,4.8c0,0.6-0.1,1.2-0.3,1.8c-0.2,0.6-0.5,1.1-0.8,1.5c-0.3,0.3-0.7,0.7-1.1,1
				c-0.5,0.3-0.9,0.6-1.3,0.8c-0.8,0.3-1.5,0.5-2.1,0.6c-0.6,0.1-1.1,0.1-1.3,0.1c-0.1,0-0.4,0-0.8,0s-0.8-0.1-1.3-0.1
				c-0.8-0.1-1.6-0.3-2.3-0.6c-0.7-0.3-1.3-0.6-1.7-1h0c-0.8-0.7-1.3-1.6-1.4-2.5v-1.1c0-0.3,0.1-0.6,0.4-0.8s0.5-0.3,0.9-0.3h0.7
				c0.3,0,0.6,0.1,0.9,0.3s0.4,0.5,0.4,0.8v0.6c0,0.4,0.2,0.8,0.5,1c0.3,0.2,0.6,0.4,1,0.5c0.4,0.2,0.8,0.3,1.3,0.3
				c0.3,0,0.7,0.1,1,0.1c0.4,0,0.5,0,0.6,0c0,0,0.3,0,0.7-0.1c0.4,0,0.9-0.2,1.4-0.4c1.1-0.5,1.6-1.3,1.6-2.4c0-1.3-0.3-2.2-0.9-2.7
				c-0.5-0.4-1.2-0.6-2.1-0.7l-1-0.1c-0.6,0-1.3-0.1-2.1-0.2c-0.8-0.1-1.5-0.3-2.2-0.6l0,0c-0.5-0.3-0.9-0.5-1.3-0.8
				c-0.4-0.3-0.7-0.6-0.9-1c-0.5-0.8-0.8-1.8-0.8-2.8c0-0.7,0.1-1.4,0.3-2.1c0.3-0.8,0.7-1.5,1.1-1.9c0.3-0.4,0.7-0.7,1.2-1
				c0.5-0.3,0.9-0.5,1.4-0.7c1.1-0.3,2.2-0.5,3.4-0.5c0.8,0,1.5,0.1,2.1,0.2c0.6,0.2,1.1,0.4,1.6,0.6c0.4,0.2,0.8,0.5,1.1,0.8
				c0.3,0.3,0.6,0.6,0.8,0.9c0.2,0.3,0.4,0.6,0.5,1c0.1,0.3,0.2,0.6,0.3,0.9l0.1,0.2v1.7c0,0.3-0.1,0.6-0.4,0.8
				c-0.2,0.2-0.5,0.3-0.9,0.3h-0.7c-0.3,0-0.6-0.1-0.9-0.3s-0.3-0.5-0.3-0.8v-1.2c0-0.1,0-0.2-0.1-0.4c0-0.2-0.2-0.4-0.4-0.7
				c-0.6-0.7-1.6-1.1-2.9-1.1c-1.8,0-3,0.3-3.6,1v0c-0.5,0.4-0.7,1.1-0.7,2.2c0,0.9,0.3,1.5,0.9,1.8c0.3,0.2,0.7,0.3,1.3,0.4
				c0.5,0.1,1.2,0.2,2.1,0.2H8c0,0,0.1,0,0.1,0c0,0,0,0,0.1,0c0.1,0,0.3,0,0.5,0c0.2,0,0.3,0,0.5,0c0.6,0.1,1.3,0.2,2,0.4
				C11.8,180.6,12.4,180.9,12.9,181.4z"/>
			<path class="st0" d="M33.1,173.5c0.8,0.7,1.3,1.5,1.7,2.3c0.4,0.8,0.6,1.7,0.6,2.6v6.5c0,1-0.2,1.9-0.6,2.7
				c-0.4,0.9-1,1.6-1.7,2.3c-0.7,0.7-1.6,1.2-2.5,1.6c-0.9,0.4-1.9,0.5-3,0.5h-2.3c-1.1,0-2.1-0.2-3-0.5c-0.9-0.4-1.8-0.9-2.6-1.6
				c-0.7-0.7-1.3-1.4-1.7-2.3c-0.4-0.9-0.6-1.8-0.6-2.7v-6.6c0-0.9,0.3-1.8,0.7-2.6c0.4-0.8,0.9-1.6,1.6-2.3
				c1.6-1.4,3.4-2.1,5.5-2.1h2.3C29.7,171.4,31.6,172.1,33.1,173.5z M27.6,189c0.7,0,1.3-0.1,1.8-0.3c0.6-0.2,1-0.5,1.5-0.9
				c0.4-0.4,0.7-0.8,1-1.3c0.2-0.5,0.3-1,0.3-1.6v-6.5c0-0.6-0.2-1.1-0.4-1.6c-0.2-0.5-0.6-0.9-1-1.3c-0.4-0.4-0.9-0.7-1.4-0.9
				c-0.5-0.2-1.1-0.3-1.8-0.3h-2.3c-0.6,0-1.2,0.1-1.7,0.3c-0.5,0.2-1,0.5-1.4,0.9c-0.4,0.4-0.7,0.8-1,1.3c-0.3,0.5-0.4,1-0.4,1.6
				v6.5c0,0.6,0.1,1.1,0.4,1.6c0.2,0.5,0.6,0.9,1,1.3c0.4,0.4,0.9,0.7,1.5,0.9c0.6,0.2,1.1,0.3,1.8,0.3H27.6z"/>
			<path class="st0" d="M55,171.4c0.3,0,0.6,0.1,0.9,0.3c0.3,0.2,0.4,0.5,0.4,0.8v18.4c0,0.3-0.1,0.6-0.4,0.8
				c-0.3,0.2-0.6,0.3-0.9,0.3h-0.7c-0.3,0-0.6-0.1-0.8-0.4c-0.2-0.3-0.4-0.6-0.5-1.1c-0.8,0.4-1.5,0.7-2.3,0.9
				c-0.7,0.2-1.5,0.3-2.2,0.3h-2.2c-1.1,0-2.1-0.2-3-0.6c-0.9-0.4-1.8-0.9-2.5-1.6c-0.7-0.6-1.3-1.4-1.6-2.2
				c-0.4-0.8-0.6-1.7-0.6-2.6v-12.3c0-0.3,0.1-0.6,0.4-0.8c0.3-0.2,0.5-0.3,0.9-0.3h0.7c0.3,0,0.6,0.1,0.9,0.3
				c0.3,0.2,0.4,0.5,0.4,0.8v12.2c0,0.6,0.2,1.1,0.4,1.6c0.2,0.5,0.6,0.9,1,1.3c0.4,0.4,0.9,0.7,1.4,0.9c0.5,0.2,1.1,0.3,1.8,0.3
				h2.2c0.6,0,1.2-0.1,1.7-0.3c0.5-0.2,1-0.5,1.4-0.9c0.4-0.4,0.7-0.8,1-1.3c0.3-0.5,0.4-1,0.4-1.6v-12.2c0-0.3,0.1-0.6,0.4-0.8
				c0.3-0.2,0.5-0.3,0.9-0.3H55z"/>
			<path class="st0" d="M70.8,171.4c0.4,0,0.7,0.1,0.9,0.3c0.3,0.2,0.4,0.5,0.4,0.8v0.7c0,0.3-0.1,0.6-0.4,0.8
				c-0.3,0.2-0.6,0.3-0.9,0.3h-3.6c-0.6,0-1.2,0.1-1.8,0.3c-0.5,0.2-1,0.5-1.4,0.9c-0.4,0.4-0.7,0.8-1,1.3c-0.2,0.5-0.4,1-0.4,1.6
				v12.5c0,0.3-0.1,0.6-0.4,0.8c-0.2,0.2-0.5,0.3-0.9,0.3h-0.7c-0.3,0-0.6-0.1-0.9-0.3c-0.3-0.2-0.4-0.5-0.4-0.8v-18.6
				c0-0.3,0.1-0.6,0.4-0.8c0.3-0.2,0.6-0.4,0.9-0.4h0.7c0.3,0,0.5,0.1,0.8,0.4c0.2,0.3,0.4,0.6,0.5,1c0.8-0.4,1.5-0.7,2.3-0.9
				c0.8-0.2,1.5-0.3,2.2-0.3H70.8z"/>
			<path class="st0" d="M87.7,171.4c0.3,0,0.6,0.1,0.9,0.3c0.3,0.2,0.4,0.5,0.4,0.8v0.7c0,0.3-0.1,0.6-0.4,0.8
				c-0.3,0.2-0.5,0.3-0.9,0.3h-6c-1.1,0-1.9,0.3-2.6,1c-0.7,0.6-1.1,1.5-1.1,2.4v7.9c0,1,0.4,1.8,1.1,2.4c0.7,0.7,1.6,1,2.6,1h6
				c0.3,0,0.6,0.1,0.9,0.3c0.3,0.2,0.4,0.5,0.4,0.8v0.7c0,0.3-0.1,0.6-0.4,0.8c-0.3,0.2-0.5,0.3-0.9,0.3h-6c-1.9,0-3.5-0.6-4.9-1.9
				c-0.7-0.6-1.2-1.3-1.5-2.1c-0.3-0.8-0.5-1.6-0.5-2.4v-7.9c0-0.9,0.2-1.7,0.5-2.4c0.3-0.8,0.8-1.5,1.5-2.1c0.7-0.6,1.4-1,2.2-1.4
				c0.8-0.3,1.7-0.5,2.7-0.5H87.7z"/>
			<path class="st0" d="M93.9,173.2c0.7-0.6,1.4-1,2.2-1.4s1.7-0.5,2.7-0.5l4.4,0c1.8,0.1,3.3,0.8,4.5,1.9c1.4,1.2,2,2.7,2,4.5v0.7
				c0,0.9-0.2,1.7-0.5,2.5c-0.3,0.8-0.8,1.5-1.5,2c-0.6,0.6-1.3,1-2,1.3s-1.5,0.5-2.3,0.5h-5.3c-0.3,0-0.6-0.1-0.9-0.3
				c-0.2-0.2-0.4-0.5-0.4-0.8V183c0-0.3,0.1-0.6,0.4-0.8c0.2-0.2,0.5-0.3,0.9-0.3h4.7c0.5,0,1-0.1,1.4-0.3c0.4-0.2,0.8-0.4,1.2-0.7
				c0.3-0.3,0.6-0.7,0.8-1.1c0.2-0.4,0.3-0.9,0.3-1.4v-0.7c0-1-0.4-1.8-1.1-2.4c-0.7-0.6-1.6-1-2.6-1h-3.9c-1.1,0-2,0.3-2.7,1
				c-0.7,0.6-1,1.5-1,2.4v7.9c0,1,0.4,1.8,1.1,2.4c0.7,0.7,1.6,1,2.6,1h6c0.3,0,0.6,0.1,0.9,0.3c0.3,0.2,0.4,0.5,0.4,0.8v0.7
				c0,0.3-0.1,0.6-0.4,0.8c-0.3,0.2-0.6,0.3-0.9,0.3h-6c-2,0-3.6-0.6-4.9-1.9c-0.6-0.6-1.1-1.3-1.5-2.1c-0.4-0.8-0.5-1.6-0.5-2.5
				v-7.9c0-0.9,0.2-1.7,0.5-2.5C92.8,174.5,93.3,173.8,93.9,173.2z"/>
			<path class="st0" d="M136.1,171.4c0.3,0,0.6,0.1,0.9,0.3c0.3,0.2,0.4,0.5,0.4,0.8v0.7c0,0.3-0.1,0.6-0.4,0.8
				c-0.3,0.2-0.5,0.3-0.9,0.3h-6c-1.1,0-1.9,0.3-2.6,1c-0.7,0.6-1.1,1.5-1.1,2.4v7.9c0,1,0.4,1.8,1.1,2.4c0.7,0.7,1.6,1,2.6,1h6
				c0.3,0,0.6,0.1,0.9,0.3c0.3,0.2,0.4,0.5,0.4,0.8v0.7c0,0.3-0.1,0.6-0.4,0.8c-0.3,0.2-0.5,0.3-0.9,0.3h-6c-1.9,0-3.5-0.6-4.9-1.9
				c-0.7-0.6-1.2-1.3-1.5-2.1c-0.3-0.8-0.5-1.6-0.5-2.4v-7.9c0-0.9,0.2-1.7,0.5-2.4c0.3-0.8,0.8-1.5,1.5-2.1c0.7-0.6,1.4-1,2.2-1.4
				c0.8-0.3,1.7-0.5,2.7-0.5H136.1z"/>
			<path class="st0" d="M156,173.5c0.8,0.7,1.3,1.5,1.7,2.3c0.4,0.8,0.6,1.7,0.6,2.6v6.5c0,1-0.2,1.9-0.6,2.7
				c-0.4,0.9-1,1.6-1.7,2.3c-0.7,0.7-1.6,1.2-2.5,1.6c-0.9,0.4-1.9,0.5-3,0.5h-2.3c-1.1,0-2.1-0.2-3-0.5c-0.9-0.4-1.8-0.9-2.6-1.6
				c-0.7-0.7-1.3-1.4-1.7-2.3c-0.4-0.9-0.6-1.8-0.6-2.7v-6.6c0-0.9,0.3-1.8,0.7-2.6c0.4-0.8,0.9-1.6,1.6-2.3
				c1.6-1.4,3.4-2.1,5.5-2.1h2.3C152.7,171.4,154.5,172.1,156,173.5z M150.5,189c0.7,0,1.3-0.1,1.8-0.3c0.6-0.2,1-0.5,1.5-0.9
				c0.4-0.4,0.7-0.8,1-1.3c0.2-0.5,0.3-1,0.3-1.6v-6.5c0-0.6-0.2-1.1-0.4-1.6c-0.2-0.5-0.6-0.9-1-1.3c-0.4-0.4-0.9-0.7-1.4-0.9
				c-0.5-0.2-1.1-0.3-1.8-0.3h-2.3c-0.6,0-1.2,0.1-1.7,0.3c-0.5,0.2-1,0.5-1.4,0.9c-0.4,0.4-0.7,0.8-1,1.3c-0.3,0.5-0.4,1-0.4,1.6
				v6.5c0,0.6,0.1,1.1,0.4,1.6c0.2,0.5,0.6,0.9,1,1.3c0.4,0.4,0.9,0.7,1.5,0.9c0.6,0.2,1.1,0.3,1.8,0.3H150.5z"/>
			<path class="st0" d="M177.6,161.8c0.3,0,0.6,0.1,0.9,0.3c0.3,0.2,0.4,0.5,0.4,0.8v21.9c0,1-0.2,1.9-0.6,2.7
				c-0.4,0.9-1,1.6-1.7,2.3c-0.7,0.7-1.6,1.2-2.5,1.6c-0.9,0.4-1.9,0.5-3,0.5h-2.2c-1.1,0-2.1-0.2-3-0.5c-0.9-0.4-1.8-0.9-2.6-1.6
				c-0.7-0.7-1.3-1.4-1.7-2.3c-0.4-0.9-0.6-1.8-0.6-2.7v-6.6c0-0.9,0.3-1.8,0.7-2.6c0.4-0.8,0.9-1.6,1.6-2.3
				c1.6-1.4,3.4-2.1,5.6-2.1h2.2c0.7,0,1.4,0.1,2.2,0.3c0.8,0.2,1.6,0.5,2.4,0.9V163c0-0.3,0.1-0.6,0.4-0.8c0.3-0.2,0.6-0.3,0.9-0.3
				H177.6z M171,189c0.7,0,1.3-0.1,1.8-0.3c0.6-0.2,1-0.5,1.5-0.9c0.4-0.4,0.7-0.8,1-1.3c0.2-0.5,0.3-1,0.3-1.6v-6.5
				c0-0.6-0.2-1.1-0.4-1.6c-0.2-0.5-0.6-0.9-1-1.3c-0.4-0.4-0.9-0.7-1.4-0.9c-0.5-0.2-1.1-0.3-1.8-0.3h-2.2c-0.6,0-1.2,0.1-1.8,0.3
				c-0.5,0.2-1,0.5-1.4,0.9c-0.4,0.4-0.7,0.8-1,1.3c-0.3,0.5-0.4,1-0.4,1.6v6.5c0,0.6,0.1,1.1,0.4,1.6c0.2,0.5,0.6,0.9,1,1.3
				c0.4,0.4,0.9,0.7,1.5,0.9c0.6,0.2,1.2,0.3,1.8,0.3H171z"/>
			<path class="st0" d="M183.9,173.2c0.7-0.6,1.4-1,2.2-1.4c0.8-0.3,1.7-0.5,2.7-0.5l4.4,0c1.8,0.1,3.3,0.8,4.5,1.9
				c1.4,1.2,2,2.7,2,4.5v0.7c0,0.9-0.2,1.7-0.5,2.5c-0.3,0.8-0.8,1.5-1.5,2c-0.6,0.6-1.3,1-2,1.3c-0.7,0.3-1.5,0.5-2.3,0.5h-5.3
				c-0.3,0-0.6-0.1-0.9-0.3c-0.2-0.2-0.4-0.5-0.4-0.8V183c0-0.3,0.1-0.6,0.4-0.8c0.2-0.2,0.5-0.3,0.9-0.3h4.7c0.5,0,1-0.1,1.4-0.3
				c0.4-0.2,0.8-0.4,1.2-0.7c0.3-0.3,0.6-0.7,0.8-1.1c0.2-0.4,0.3-0.9,0.3-1.4v-0.7c0-1-0.4-1.8-1.1-2.4c-0.7-0.6-1.6-1-2.6-1h-3.9
				c-1.1,0-2,0.3-2.7,1c-0.7,0.6-1,1.5-1,2.4v7.9c0,1,0.4,1.8,1.1,2.4c0.7,0.7,1.6,1,2.6,1h6c0.3,0,0.6,0.1,0.9,0.3
				c0.3,0.2,0.4,0.5,0.4,0.8v0.7c0,0.3-0.1,0.6-0.4,0.8c-0.3,0.2-0.6,0.3-0.9,0.3h-6c-2,0-3.6-0.6-4.9-1.9c-0.6-0.6-1.1-1.3-1.5-2.1
				c-0.4-0.8-0.5-1.6-0.5-2.5v-7.9c0-0.9,0.2-1.7,0.5-2.5C182.8,174.5,183.3,173.8,183.9,173.2z"/>
		</g>
	</g>
	<g>
		<path class="st1" d="M159.6,120l28-28l-27.8-27.8c0,0-2.9-3,0-5.9c2.9-2.9,6.1-0.2,6.1-0.2L199.8,92l-34.2,34.1
			c-0.8,0.5-3.4,2-5.9-0.4S159,120.8,159.6,120L159.6,120z"/>
		<path class="st0" d="M68.5,87.9c1.4,0.5,2.6-0.7,6.2,0.4c2.5,0.8,26.4,13.6,28,15.2s1.2,2.9,1.2,2.9s3.7,0,6.2-3.3
			s11.5-24.3,17.7-36.6c6.2-12.4,13.2-26.4,14.4-28.8s4.5-8.6-16.1-19.4S99.8,12.1,99,14.6s-8.2,18.5-14.4,32.9
			c-6.2,14.4-15.9,31.3-16.5,32.9C67.1,83.5,67.3,87.4,68.5,87.9z"/>
		<path class="st0" d="M96.4,106.5c3.4,2.8,3.6,2.8,3.2,3.6c-0.4,0.8-2.2,3.3-3.5,5.3c-1.2,2-4.2,6.7-5.3,6.5
			c-1.1-0.2-3.2-3.2-11.7-7.9c-8.5-4.6-11.8-4.6-13-4.2c-1.2,0.5-2.7-2.8-2.4-3.9c0.3-1.2,2.2-5,3.2-7c1.5-3,1.5-6.6,4.7-5.4
			C75.9,95,93.4,104,96.4,106.5z"/>
		<path class="st0" d="M68.7,116.5c-0.8,1.4-5.8,20.2-6.6,22.3s-2.2,4.5-0.8,5.9c0.6,0.6-1.4,4.3,0.2,4.5c1.6,0.2,8.1-9.1,11.2-13.6
			c3.3-4.7,6.4-8.9,7.6-10.3c1.2-1.5,0.7-2.7-4.9-6.3C72,116.9,69.2,115.6,68.7,116.5z"/>
		<path class="st2" d="M40.5,120l-28-28l27.8-27.8c0,0,2.9-3,0-5.9S34.2,58,34.2,58L0.2,92l34.2,34.1c0.8,0.5,3.4,2,5.9-0.4
			S41.1,120.8,40.5,120L40.5,120z"/>
	</g>
</g>
</svg>
